<?xml version="1.0" encoding="UTF-8"?>
<svg id="Layer_1" data-name="Layer 1" xmlns="http://www.w3.org/2000/svg" viewBox="0 0 846.06 210.68">
  <defs>
    <style>
      .cls-1, .cls-2 {
        fill: #231f20;
      }

      .cls-3 {
        letter-spacing: .2em;
      }

      .cls-4 {
        letter-spacing: .16em;
      }

      .cls-2 {
        font-family: Quicksand-Regular, Quicksand;
        font-size: 19px;
        stroke: #231f20;
        stroke-miterlimit: 10;
        stroke-width: .5px;
      }
    </style>
  </defs>
  <text class="cls-2" transform="translate(272.66 206.33)"><tspan class="cls-3" x="0" y="0">DES PETITS TREMBL</tspan><tspan class="cls-4" x="243.79" y="0">A</tspan><tspan class="cls-3" x="259.06" y="0">Y</tspan></text>
  <g>
    <path class="cls-1" d="M845.94,124.98c-.27-.86-.99-1.51-1.87-1.7-4.87-1.03-10.09-.57-14.71,1.29-.22.09-.49.19-.8.31-2.73,1.03-6.72,2.54-7.68,5.52-4.74.87-9.15,1.39-14.29,1.34.44-.47.82-.9,1.12-1.24l.41-.47c2.28-2.54,5.11-6.65,5.59-11.83.08-.82-.25-1.62-.88-2.15-.63-.53-1.48-.72-2.27-.49-4.98,1.38-8.79,3.38-11.63,6.13-.8.77-4.8,4.84-4.7,8.9,0,.03,0,.06,0,.09-2.25-.33-4.65-.74-7.27-1.24l-2.44-.47c-4.66-.89-9.47-1.82-14.12-2.97-3.4-.84-6.93-1.39-10.54-1.71,2.23-2.27,3.81-5.28,4.04-5.91,1.36-3.65.52-8.05-2.09-10.95,0,0,0,0-.01-.01-.93-1.02-2.51-1.1-3.53-.18-.32.29-.55.65-.68,1.03-.21.35-.72,1.13-1.18,1.82-4.6,6.96-6.53,10.48-5.84,12.91.1.34.21.65.33.94-15.4.11-31.4,3.57-44.2,6.86,17.45-8.33,33.97-18.49,49.34-30.38.32-.24.55-.55.71-.89.34.04.67.06,1.01.06.13,0,.26,0,.39,0,4.06-.17,7.57-2.44,10.18-4.4,5.69-4.28,10.71-9.62,14.69-15.57,2.59,10.78,10.64,23.7,15.84,26.98h0c2.45,1.54,4.94,2.33,7.26,2.33.97,0,1.91-.14,2.8-.42,3.45-1.09,6.17-4.39,6.93-8.42,1.2-6.32-3.77-20.14-10.86-29.11,3.95,1.08,7.97,1.99,12.09,2.47,2.1.25,4.16.37,6.17.37,6.46,0,12.37-1.27,17.33-3.76.65-.32,2.61-1.31,2.99-3.45.2-1.12-.14-2.1-.41-2.74-2.02-4.8-6.9-8.21-14.51-10.14-5.92-1.5-11.8-2.23-17.61-2.19,4.69-2.68,9.14-5.78,13.21-9.27,2.67-2.29,5.61-5.13,7.16-8.86,1.2-2.89,1.44-5.95,1.56-8.6.09-1.92.33-7.02-3.27-9.68-1.25-.93-2.85-1.45-4.74-1.55-4.28-.23-9.26,1.32-12.36,3.87-2.54,2.09-4.92,4.69-7.48,8.17-2.04,2.77-4.76,6.8-7.47,10.86,1.95-12.15,1.11-25.98-3.8-32.8-.79-1.1-1.71-2.22-3.09-2.95-1.65-.88-3.6-.97-5.48-.26-2.26.86-4.2,2.81-5.04,5.08-1.22,3.28-1.39,7.39-1.42,10.19-.05,5.1.72,10.53,1.7,15.7-.52-.71-1.03-1.36-1.49-1.91-4.38-5.2-7.74-7.71-13.85-10.33-3.24-1.39-7.44-2.74-11.29-.86-1.1.54-1.89,1.27-2.34,2.18-.69,1.39-.42,2.8-.29,3.47.69,3.57,2.03,6.94,3.98,10.01,1.74,2.73,3.89,5.1,5.96,7.25.98,1.02,1.91,2,2.8,2.94.73.77,1.44,1.52,2.15,2.25-7.49-2.11-15.45-2.45-23.11-.89-1.68.34-6.78,1.37-8.69,5.59-1.37,3.02-.55,6.9,2.03,9.65,2.12,2.25,4.96,3.45,7.46,4.33,6.56,2.31,13.6,3.47,20.62,3.47.89,0,1.79-.04,2.68-.07-3.55,2.96-6.93,6.52-9.91,9.65-1.46,1.53-2.83,2.98-4.07,4.19-2.66,2.61-5.31,5.82-4.81,9.84.28,2.26,1.53,4.06,3.21,5.33-8.58,6.54-17.52,12.55-26.78,17.99,5.86-10.58-.05-24.41-3.38-32.19l-10.47-24.44c.05-.8-.28-1.57-.89-2.08l-.63-1.47c-.39-.92-1.3-1.52-2.3-1.52h-.02c-1.01,0-1.91.62-2.29,1.56-5.81,14.27-8.61,29.96-8.11,45.35.13,3.95,1.48,8.8,3.61,12.96,1.78,3.49,4.86,7.98,9.39,9.61.17.06.34.11.52.17-9.78,4.95-19.86,9.32-30.22,13.06-.22.08-.42.2-.6.33-7.1.95-14.06,2.43-20.83,4.44,2.73-2.84,4.99-5.78,6.85-8.67.79.67,1.76,1.14,2.9,1.36.54.11,1.1.16,1.67.16,4.59,0,10.1-3.12,12.18-4.98.22-.2.9-.8,1.09-1.84.16-.88-.09-1.76-.68-2.43-1.01-1.14-2.53-1.16-2.96-1.14-3.18.15-6.85.47-10.05,1.43,1.63-3.4,2.79-6.47,3.69-8.88l.38-1c4.87-1.66,9.14-10.91,9.51-12.06,1.63-4.99.95-9.72-1.82-12.64-.48-.51-1.16-.78-1.84-.78-.7,0-1.36.31-1.83.82-1.27,1.41-12.33,13.92-10.06,20.91.33,1.02.75,1.77,1.22,2.35l-.24.64c-.31.81-.64,1.69-.99,2.61-1.62-2.96-3.97-5.56-5.09-6.42,0,0,0,0,0,0-2.31-1.77-4.96-2-6.77-.59-1.14.89-1.78,2.3-1.88,4.17-.19,3.36,1.94,9.05,5.29,11.84,1.2,1,2.36,1.48,3.41,1.68-3.91,6.68-9.85,13.79-19.5,19.16-2.36,1.03-4.69,2.13-6.98,3.31,0,0,0,0,0,0-5.27,2.55-9.47,3.06-12.47,1.49-5.7-2.97-7.34-13.15-8.54-20.59-1.07-6.63-1.71-10.63-4.97-11.34-1.21-.26-3.53-.23-5.61,2.92-.7,1.05-1.35,2.47-1.94,4.13-1.4-3.72-3.33-6.53-6.02-7.02-1.3-.24-2.53.03-3.56.8-2.68,1.98-3.2,6.61-3.93,13.01-.85,7.53-1.92,16.89-6.96,18.54-.31.11-1.04.34-2.29-1.37-1.58-2.18-2.97-6.28-3.82-11.15,1.32-4.3,1.93-8.58,2.06-11.83.25-5.86-.97-7.27-2.19-7.88-1.03-.51-2.25-.36-3.18.41-.65.53-1.16,1.4-1.55,2.52-1.69-2-3.84-3.08-6.22-3.08h0c-4.29,0-7.39,5.25-9.24,9.65-2.67,6.36-4.79,16.32-2.84,22.41-.03,0-.05,0-.08,0-6.89-.25-9.1-10.56-10.88-18.84-1.57-7.29-2.91-13.6-7.94-13.05-2.39.26-4.43,3.19-6.09,8.74-1.44-4.14-3.33-7.66-5.7-8.53-1.4-.51-2.91-.17-4.15.94-1.44,1.28-2.77,4.03-3.91,7.43-1.59-4.92-3.67-7.67-6.33-8.37-1.29-.34-2.55-.15-3.66.54-3.13,1.96-4.23,7.65-5.63,14.84-1.31,6.73-3.1,15.95-6.51,16.94-.83.23-1.79-.71-2.45-1.55-2.21-2.77-3.98-7.72-5.16-12.67,1.12-3.72,1.79-7.38,1.96-10.33.31-5.24-.95-8.16-3.74-8.68-1.48-.28-2.86.37-3.7,1.73-.33.53-.58,1.22-.76,2.05-1.58-1.71-3.45-2.79-5.45-2.94-2.02-.16-5.03.62-7.89,5.24-4.28,6.92-6.57,19.88-3.51,26.81-7.41.41-9.74-7.95-12.03-18.88-1.57-7.51-2.93-14-8.16-13.84-3.08.09-4.63,3.57-5.14,4.72-.27.62-.55,1.35-.82,2.17-1.76-4.66-4.09-6.94-6.99-6.83-2.22.09-3.88,2-5.43,6.33-1.83-4.36-4.08-6.4-6.85-6.28-3.93.2-5.22,4.62-6.58,9.3-1.35,4.62-3.02,10.38-7.05,13.43-1.1.83-1.32,2.4-.48,3.5s2.4,1.32,3.5.48c5.34-4.05,7.36-10.97,8.83-16.02.57-1.95,1.4-4.81,2.08-5.62.4.31,1.52,1.49,2.78,5.45.53,1.67.98,3.47,1.35,5.31-1.6,8.01-2.97,18.82-.06,21.07,1.03.79,2.39.84,3.54.11,3.81-2.41,3.04-13.23,1.56-21.22,1.21-5.89,2.5-9.31,3.31-10.59.3.3.77.91,1.33,2.15,1.21,2.67,2.08,6.49,2.66,10.4-1.3,8.07-1.73,16.72.03,18.79.73.85,1.83,1.21,2.89.93,2.4-.63,2.91-3.6,2.96-8.2.03-3.43-.27-7.62-.83-11.58,1.23-7.55,2.82-11.56,3.73-12.67,1.13,1.08,2.26,6.45,2.94,9.74,1.92,9.2,4.79,22.88,16.3,22.88.54,0,1.1-.03,1.67-.09,1.14-.12,2.22-.29,3.25-.51,1,.39,2.1.56,3.28.48,5.31-.36,9.56-5.21,12.54-11.22,1.15,3.17,2.5,5.97,3.97,7.9,3.01,3.97,6.01,4.12,7.99,3.55,6.35-1.83,8.22-11.47,10.04-20.79.75-3.86,1.99-10.23,3.24-11.45.31.18.91.79,1.6,2.17,1.56,3.16,2.57,7.92,3.14,12.54-1.14,6.49-1.59,12.69-1.02,15.11.43,1.83,1.49,2.47,2.29,2.69,1,.27,2.03-.02,2.78-.76,1.91-1.91,1.83-9.58.99-16.69,1.18-6.27,2.92-12.69,4.45-14.77,1.07,1.47,2.88,5.71,4.51,13.34.07.32.13.64.2.95-.76,4.93-2.29,15.96,1.86,17.81.41.18.84.27,1.26.27.64,0,1.26-.21,1.79-.61.92-.7,2.62-2,.87-13.56-.15-.96-.37-2.36-.68-3.99.99-6.03,2.52-12.14,3.91-14.24.9,1.51,1.82,5.79,2.46,8.74,2.03,9.46,4.82,22.4,15.59,22.79,1.48.06,2.9,0,4.27-.19,1.42.59,3.43.79,6.1-.27,4.31-1.71,7.49-5.08,9.79-9.07.58,1.79,1.24,3.41,1.97,4.73,3.17,5.77,6.98,5.53,8.96,4.88,8.09-2.65,9.36-13.79,10.37-22.73.37-3.25.92-8.07,1.78-9.36.8.59,2.77,3.68,4.21,12.61-1.26,7.93-1.37,16.23.42,18.76,1,1.41,2.42,1.51,3.34,1.18,1.3-.47,3.09-1.12,2.06-13.43-.16-1.95-.4-4.21-.75-6.55.45-2.76,1.06-5.5,1.84-7.91.77-2.39,1.46-3.62,1.92-4.24.49,1.53.96,4.43,1.32,6.68,1.37,8.48,3.24,20.1,11.17,24.22,4.46,2.33,10.14,1.85,16.88-1.39,2.53-1.01,4.87-2.13,7.04-3.33,23.42-10.24,49.81-13.31,77.21-8.99-1.62.56-3.72,1.52-4.84,3.64-1.45,2.73-.36,5.75.16,7.21,1.26,3.51,3.24,7.76,7.4,9.44,1.27.51,2.58.71,3.87.71,2.04,0,4.01-.5,5.68-1.01,1.64-.5,3.24-1.09,4.82-1.74-1.55,2.68-2.64,5.68-2.23,8.97.25,2.03,1.06,3.82,1.77,5.39,1.02,2.27,2.73,6.06,6.33,7.54.71.29,1.68.45,2.79.45,1.96,0,4.35-.5,6.44-1.62,2.62-1.41,4.27-3.55,4.79-6.18.52-2.68.56-6.24.38-9.73,1.39,1.55,2.95,2.94,4.66,4.11,1.13.78,2.19,1.37,3.23,1.81,1.8.76,3.73,1.15,5.67,1.15,1.36,0,2.73-.19,4.06-.58,2.12-.62,3.77-1.65,4.89-3.07,1.99-2.51,2.23-6.25.6-9.53-1.28-2.57-3.42-4.47-5.53-6.14-5.1-4.01-9.55-6.79-14.89-9.3-.26-.12-.54-.19-.81-.21-.28-1.77-.98-3.28-2.11-4.46-.37-.38-.85-.64-1.37-.73-1.51-.27-2.91.11-3.92.39-1.11.3-2.45.67-3.7,1.42-.18-.12-.37-.22-.59-.29-4.52-1.48-9.94-1.65-16.4-.53-.2-.1-.41-.19-.63-.24-8.68-1.89-17.29-3.07-25.77-3.55,17.96-4.65,42.55-9.81,62.05-4.99,2.71.67,5.46,1.26,8.19,1.81-.37,5.34,6.56,13.75,6.64,13.83,1.44,1.46,3.06,2.95,5.13,3.94,1.42.68,2.91,1.02,4.35,1.02,1.1,0,2.17-.2,3.14-.61h.01c1.27-.54,1.87-2.01,1.33-3.28-.11-.25-.25-.48-.42-.67-.21-.31-.73-1.16-1.24-1.98-2.7-4.36-4.76-7.54-6.39-9.85,11.49,1.97,19.03,2.04,26.47,1.09.12.76.44,1.57,1.02,2.43,1.8,2.62,6.31,5.6,9.86,5.6.71,0,1.38-.12,1.98-.38,0,0,0,0,0,0,.92-.4,1.51-1.33,1.5-2.34,0-.63-.93-3.01-2.43-5.37.55-.12,1.11-.25,1.65-.39,2.86-.79,5.45-2.08,7.95-3.33,2.46-1.23,5.25-2.62,7.42-4.94.62-.66.83-1.6.56-2.46ZM786.25,55.11c.76,0,1.56.06,2.33.13.39.22,1.24,1.17,1.89,2.81.69,1.75.66,3.07.5,3.37-1.07,1.59-3.55,1.96-5.33,1.5-1.73-.45-3.15-1.53-3.79-2.88-.61-1.29-.41-2.91.45-3.79.88-.89,2.35-1.14,3.95-1.14ZM810.96,99.17c-.42,2.21-1.84,4.05-3.52,4.58-2.15.68-4.62-.57-5.9-1.38-4.82-3.04-15.2-20.6-14.3-30.09.29-3.11,1.74-4.02,2.8-4.44,2.05-.81,4.47-.07,7.18,2.17,8.26,6.85,14.79,23.65,13.75,29.15ZM838.45,65.56s-.06.03-.1.05c-5.63,2.82-12.77,3.82-20.67,2.89-7.28-.86-14.47-3.17-21.43-5.41-.18-.06-.36-.09-.54-.11.49-1.44.39-3.04.12-4.38,10.21-2.74,20.84-2.75,31.61-.02,5.85,1.48,9.55,3.83,11.02,6.97ZM809.17,28.6c2.31-3.14,4.42-5.45,6.63-7.27,2.13-1.75,5.88-2.9,8.91-2.74.89.05,1.59.25,2.04.58,1.3.96,1.33,3.56,1.25,5.42-.1,2.22-.29,4.77-1.18,6.91-1.15,2.75-3.46,4.99-5.8,6.99-7.89,6.77-17.27,12.03-27.16,15.26-.29-.45-.62-.9-1-1.33,2.24-3.09,5.15-7.44,7.98-11.68,3-4.49,6.11-9.13,8.33-12.15ZM786.73,36.8c-1.43-6.62-2.95-14.25-2.89-21.01.01-1.4.05-5.65,1.11-8.49.35-.93,1.2-1.8,2.13-2.15.53-.2.98-.2,1.35,0,.48.26.95.85,1.38,1.46,5.29,7.36,5.37,31.05-1.53,43.58-.07,0-.14,0-.21-.01,0-.15-.02-.3-.03-.46.48-4.5-.46-8.96-1.32-12.92ZM759.48,31.31c-1.59-2.5-2.73-5.36-3.29-8.27-.02-.09-.03-.16-.04-.22,2.02-.95,4.84.03,7.08.99,5.35,2.29,8.15,4.39,11.99,8.96,3.7,4.4,7.3,11.29,7.81,16.91,0,.04,0,.07-.01.11-.03.23-.02.45,0,.67-1.15.26-2.28.72-3.3,1.45-.38-.28-.78-.51-1.2-.72-4.13-3.32-7.29-6.65-10.87-10.43-.91-.96-1.84-1.95-2.83-2.97-1.89-1.96-3.85-4.11-5.35-6.47ZM745.53,60.41c-2.03-.71-4.1-1.57-5.48-3.04-1.01-1.07-1.72-2.85-1.12-4.16.57-1.25,2.29-2.18,5.13-2.75,9.57-1.94,19.66-.61,28.4,3.73.67.33,1.42.58,2.14.82.35.12.86.29,1.3.46.29.23.6.47.91.7-.52,1.93-.39,4.08.51,5.99,0,0,0,0,0,.01-.1.01-.2.01-.3.04-10.32,2.35-21.51,1.71-31.5-1.8ZM756.69,85.94c1.3-1.28,2.71-2.75,4.19-4.32,4.96-5.22,11.14-11.72,16.59-13.78,2.58-.98,3.99-.74,4.41-.25.62.74.64,3.24-1.27,6.49-3.88,6.59-9.17,12.51-15.28,17.11-2.15,1.62-4.71,3.29-7.38,3.4-2.01.09-4.38-1.18-4.61-3.01-.23-1.86,1.56-3.9,3.35-5.65ZM718.71,115.57c-2.04,2.32-3.74,3.11-5.02,3.3,1.21-9.17-.58-18.3-2.32-27.13-.22-1.12-.44-2.24-.66-3.36-1.34-7.02-2.37-14.29-1.62-21.14l7.74,18.06h0c4.85,11.32,8.43,22.82,1.87,30.26ZM701.72,100.59c-.27-8.36.5-16.8,2.21-25.04.26,4.62,1,9.26,1.87,13.78.21,1.13.44,2.25.66,3.38,1.58,8.03,3.21,16.31,2.41,24.31-3.87-3.46-6.98-10.96-7.16-16.43ZM466.4,151.25c-.1-.13-.19-.27-.29-.42-2.59-4.29-1.06-16.43,2.87-22.78,1.11-1.8,2.31-2.89,3.17-2.89.03,0,.05,0,.08,0,2.4.19,5.36,5.17,5.45,11.07.13,9.57-6.08,13.45-11.27,15.03ZM567.1,144.93c-2.07,3.39-5.16,5.6-9.08,6.51-1.94-2.94-.92-12.47,2.25-20,2.07-4.92,4.05-6.58,4.63-6.58,1.49,0,2.55,1.33,3.18,2.45,2.3,4.09,2.56,11.81-.98,17.62ZM754.51,174.38c-.21,1.08-.88,1.94-2.04,2.62-1.99,1.17-4.54,1.27-5.17,1.07-1.62-.67-2.66-2.73-3.67-4.97-.59-1.32-1.21-2.68-1.37-3.96-.37-2.96,1.54-6.03,3.45-8.64.22-.3.45-.63.69-.96.95-1.33,2.32-3.24,3.67-4.45.14-.1.28-.19.42-.28.15-.1.28-.22.4-.35.43-.28.85-.46,1.25-.49.18-.02.67-.06,1.48.57.47,3.15,1.99,14.19.88,19.86ZM774.27,157.29c1.92,1.51,3.36,2.84,4.15,4.44.75,1.5.73,3.22-.04,4.19-.58.73-1.61,1.15-2.37,1.37-2.07.6-4.39.47-6.37-.37-.73-.31-1.5-.74-2.35-1.33-4.51-3.1-7.78-8-8.99-13.35,1.26-.71,2.28-1.86,2.89-3.24,4.61,2.23,8.58,4.75,13.09,8.3ZM752.85,144.94c.66-.5,1.71-.79,2.72-1.07.29-.08.6-.16.89-.22.39.91.37,2.03.31,2.72-.07.81-.74,1.62-1.34,1.65-.58,0-1.36-.46-2.38-1.42-.58-.56-.71-.78-.73-.86-.01-.1.13-.49.53-.79ZM747.44,144.65c-.16.78-.16,1.59.05,2.36.3,1.14.95,2.01,1.63,2.72-.72.36-1.41.82-2.05,1.36-4.26,2.9-8.9,5.14-13.82,6.65-2.05.63-4.38,1.17-6.2.44-2.33-.94-3.67-3.97-4.57-6.5-.4-1.12-.81-2.49-.45-3.18.39-.73,1.92-1.22,2.84-1.51,9.58-3.06,16.98-3.83,22.57-2.34ZM797.06,146.44c-.26-.17-.55-.28-.85-.34.31.06.6.19.85.34ZM797.46,146.76c-.11-.11-.23-.2-.36-.29.13.09.25.18.36.29ZM795.77,146.05c.13,0,.26.02.39.04-.13-.02-.26-.04-.39-.04ZM795.66,146.05c-.12,0-.24.02-.36.04.12-.02.24-.03.36-.04ZM795.2,146.11c-.15.03-.3.08-.45.14h0c.15-.06.3-.11.45-.14Z"/>
    <path class="cls-1" d="M371.79,148.7c-1.13-.78-2.69-.5-3.48.63-2.13,3.08-3.75,4.12-4.36,3.77-1.36-.77-3.51-5.08-4.88-15.99,3.81-16.59,4.4-38.61,1.41-48.38-.76-2.5-2.31-2.77-3.17-2.71-2.55.18-3.01,3.19-3.35,5.38-.92,5.91-1.47,18.71-1,31.38-1.05-.93-2.25-1.64-3.57-2.08-2.81-.94-5.75-.21-8.29,2.05-5.43,4.84-8.51,16.06-6.73,24.5.47,2.21,1.26,4.15,2.33,5.77-2.13.1-3.85-.36-5.23-1.39-4.35-3.26-5.08-12.22-5.62-18.76-.53-6.48-.88-10.75-4.02-12.03-1.5-.62-3.08-.23-4.34,1.04-1.08,1.09-2.04,3.15-2.87,5.76-1.41-3.7-3.38-6.44-6.09-6.98-1.37-.28-2.67,0-3.76.79-2.83,2.07-3.4,7.23-4.12,13.76-.75,6.84-1.69,15.36-5.49,18.16-.35.26-.47.35-1.04-.11-2.46-1.99-4.57-7.96-5.95-14.01,0,0,0,0,0-.01,1.02-3.53,3.99-15.33-.83-18.68-1.53-1.07-3.33-.89-4.49.44-.35.4-.62.96-.83,1.67-2.1-1.77-4.64-2.56-7.24-2.06-8.46,1.61-12.88,17.34-11.72,27.16.25,2.16.77,4.04,1.51,5.61-3.02.45-5.36-.02-6.98-1.42-4.42-3.83-3.58-14.02-2.38-19.43.86-3.89,1.46-8.66-1.58-10.92-2.98-2.22-7.41-.61-13.15,2.55-.19-1.11-.48-2.11-.87-2.99-1.33-3.01-3.88-4.53-6.81-4.07-4.28.68-5.48,2.99-5.82,4.31-.58,2.26.52,4.78,2.87,6.6,1.4,1.08,3.42,1.99,5.74,2.21-.93,7.61-5.6,18.86-15.68,29.29-.3-5.52-.77-11.29-1.31-17.12,2.73-8.65,1.68-17.43-.21-20.57-1.22-2.02-2.79-2.2-3.62-2.11-.72.07-1.37.42-1.84.99-.25.3-.44.62-.57,1.07-2.32-1.81-4.72-1.96-6-1.87-6.39.46-12.28,7.63-14.01,17.05-1.21,6.57.43,12.83,4.01,16.6-6.42,1.03-14.57.92-24.29-.35-13.87-1.82-28.23-5.51-43.43-9.41-39.14-10.04-83.5-21.42-127.28.14-1.24.61-1.75,2.11-1.14,3.35.61,1.24,2.11,1.75,3.35,1.14,42.12-20.74,83.66-10.08,123.83.22,15.35,3.94,29.85,7.66,44.02,9.52,13.43,1.77,24.07,1.4,31.81-1.09,3.97.39,7.94-1.74,11.1-6.05.33,4.18.62,8.62.78,13.03-.69.6-1.41,1.2-2.15,1.78-9.22,7.38-13.26,14.27-15.02,18.75-2.3,5.87-2.18,11.23.35,14.71,1.36,1.87,3.68,3.36,6.76,3.36,2.15,0,4.65-.73,7.45-2.57,6.55-4.32,8.12-17.5,7.67-33.85,13.48-12.35,19.71-26.68,20.48-36.65.63-.23,1.27-.52,1.91-.87,6.4-3.55,7.85-3.19,8.04-3.11,0,0,.78.97-.29,5.85-.65,2.92-3.49,17.82,3.99,24.29,3.37,2.91,8.08,3.56,14.05,1.92,1.27.71,2.72,1.04,4.33.97,5.27-.24,9.55-5.35,12.54-11.59,1.37,3.94,3,7.3,4.73,9.17,2.47,2.69,5.52,3.14,8.15,1.2,5.56-4.1,6.59-13.42,7.49-21.64.4-3.63,1-9.04,2-10.17.25.11.79.57,1.43,1.76,1.51,2.79,2.53,7.19,3.15,11.64-1.07,7.5-1.29,14.96-.44,17.01.5,1.2,1.5,1.92,2.68,1.92,2.89,0,3.24-3.54,3.37-4.87.21-2.13.18-7.84-.58-13.89.98-6.66,2.12-10.37,2.93-12.24.33,1.71.54,4.3.71,6.37.64,7.91,1.45,17.74,7.6,22.36,3.03,2.27,6.95,2.94,11.64,1.97.47-.1.92-.2,1.37-.32.51.25,1.04.46,1.6.64,1.95.63,4.91.75,7.94-2.24,1.84-1.81,3.46-4.62,4.86-8.12,2.25,8.61,5.09,9.74,6.3,10.22,3.3,1.31,6.74-.58,10.22-5.62.79-1.14.5-2.69-.64-3.48ZM210.37,146.93c-1.74,2.11-4.25,3.77-7.5,4.97-.17-.05-.34-.11-.51-.17-3.44-1.38-6.38-6.71-5.06-13.88,1.43-7.8,5.93-12.72,9.45-12.97.09,0,.18,0,.26,0,2.82,0,4.35,3.28,5.02,5.28.19.56.4,1.27.61,2.09.14,1.57.32,3.36.52,5.43.05.49.1,1,.15,1.51-.19,2.63-.99,5.38-2.94,7.75ZM209.79,195.89c-1.23.81-5.38,3.23-7.41.44-2.46-3.38-1.1-14.35,12.91-25.93.06,12-1.16,22.63-5.49,25.49ZM233.37,124.34c-1.17-.73-1.52-1.53-1.54-1.66.07-.11.55-.46,1.77-.66.07-.01.16-.03.25-.03.33,0,.76.17,1.21,1.17.25.57.44,1.24.56,2-1.1-.19-1.9-.62-2.25-.84ZM269.81,151.93c-.09.03-.18.07-.27.1-.87-1.29-1.29-3.16-1.49-4.85-1.04-8.86,3.2-20.81,7.69-21.66.21-.04.41-.06.61-.06,2.53,0,4.54,3,5.38,6,.02.09.05.18.07.27.12,1.13.28,2.3.48,3.5.15,5.54-2.4,12.9-12.48,16.71ZM352.78,136.42c-.33,5.57-3.35,12.51-10.59,15.39-1.41-1.23-2.39-3.1-2.91-5.57-1.54-7.29,1.46-16.43,5.16-19.73,1.08-.96,1.94-1.18,2.55-1.18.39,0,.67.09.82.15,3.25,1.08,5.29,5.59,4.97,10.96Z"/>
    <path class="cls-1" d="M388.65,133.78l-.6.3c-4.98,2.52-6.65,3.37-11.89,2.91-1.37-.13-2.59.9-2.71,2.27-.12,1.38.9,2.59,2.27,2.71,1.03.09,1.97.13,2.83.13,4.71,0,7.29-1.31,11.75-3.57l.59-.3c1.23-.62,1.73-2.13,1.1-3.36-.62-1.23-2.13-1.73-3.36-1.1Z"/>
  </g>
</svg>