<?xml version="1.0" encoding="UTF-8"?>
<svg id="Layer_1" xmlns="http://www.w3.org/2000/svg" version="1.1" viewBox="0 0 1021.757 599.661">
  <!-- TEMPLATE DTF - Variables: {{custom_text}}, {{text_color}}, {{design_color}} -->
  <text transform="translate(367.223 334.096)" fill="{{text_color}}" font-family="Quicksand-Regular, Quicksand" font-size="18" letter-spacing=".2em" stroke="{{text_color}}" stroke-miterlimit="10" stroke-width=".5"><tspan x="0" y="0">{{custom_text}}</tspan></text>
  <g>
    <path d="M459.641,276.467c-1.134-.784-2.692-.5-3.478.635-2.132,3.084-3.755,4.115-4.363,3.772-1.355-.771-3.508-5.084-4.88-15.985,3.805-16.592,4.404-38.608,1.415-48.384-.763-2.496-2.306-2.766-3.167-2.706-2.546.182-3.013,3.188-3.354,5.384-.918,5.913-1.473,18.708-.996,31.382-1.05-.931-2.247-1.64-3.567-2.081-2.809-.938-5.751-.211-8.286,2.049-5.428,4.839-8.509,16.058-6.728,24.498.467,2.213,1.255,4.151,2.328,5.771-2.126.1-3.852-.357-5.227-1.388-4.354-3.265-5.084-12.223-5.618-18.765-.528-6.476-.876-10.753-4.017-12.033-1.5-.615-3.083-.233-4.344,1.037-1.08,1.088-2.043,3.154-2.873,5.759-1.411-3.697-3.378-6.44-6.092-6.982-1.373-.275-2.673-.002-3.756.791-2.834,2.074-3.402,7.232-4.121,13.763-.754,6.844-1.692,15.36-5.49,18.159-.354.26-.472.35-1.039-.109-2.458-1.991-4.565-7.957-5.946-14.014,0-.003.002-.008.003-.011,1.023-3.534,3.985-15.326-.827-18.685-1.527-1.065-3.331-.892-4.489.436-.349.398-.623.965-.831,1.67-2.105-1.771-4.645-2.558-7.243-2.063-8.463,1.612-12.876,17.343-11.721,27.16.254,2.162.771,4.044,1.515,5.605-3.024.452-5.363-.019-6.98-1.42-4.423-3.829-3.577-14.017-2.38-19.433.861-3.895,1.459-8.656-1.583-10.924-2.977-2.22-7.412-.606-13.147,2.55-.191-1.111-.481-2.112-.867-2.985-1.329-3.011-3.875-4.528-6.81-4.067-4.277.676-5.482,2.993-5.82,4.314-.577,2.257.524,4.784,2.874,6.596,1.403,1.083,3.416,1.989,5.738,2.214-.926,7.606-5.598,18.857-15.683,29.294-.301-5.516-.771-11.286-1.309-17.115,2.729-8.646,1.683-17.43-.206-20.569-1.217-2.022-2.789-2.197-3.616-2.113-.719.068-1.372.419-1.84.986-.245.298-.436.625-.575,1.065-2.321-1.813-4.716-1.96-6.002-1.867-6.387.455-12.279,7.626-14.012,17.05-1.208,6.57.432,12.826,4.01,16.596-6.418,1.032-14.574.922-24.287-.354-13.87-1.824-28.227-5.507-43.426-9.405-39.141-10.041-83.505-21.421-127.283.136-1.239.61-1.748,2.109-1.138,3.348.609,1.238,2.109,1.749,3.347,1.139,42.119-20.742,83.66-10.084,123.832.221,15.349,3.938,29.847,7.657,44.016,9.52,13.431,1.766,24.066,1.397,31.814-1.089,3.973.389,7.944-1.74,11.1-6.046.329,4.178.617,8.617.78,13.025-.695.6-1.411,1.195-2.146,1.783-9.223,7.378-13.256,14.27-15.015,18.751-2.305,5.871-2.176,11.231.353,14.707,1.357,1.866,3.684,3.363,6.758,3.363,2.145,0,4.654-.729,7.449-2.573,6.551-4.32,8.122-17.497,7.675-33.851,13.477-12.351,19.714-26.683,20.477-36.647.633-.228,1.272-.516,1.914-.872,6.397-3.555,7.847-3.189,8.039-3.108.008.01.785.974-.293,5.851-.646,2.922-3.488,17.82,3.989,24.293,3.366,2.914,8.081,3.557,14.047,1.924,1.267.705,2.719,1.042,4.327.967,5.266-.242,9.553-5.354,12.537-11.587,1.366,3.937,3.003,7.296,4.731,9.174,2.474,2.688,5.523,3.137,8.155,1.198,5.562-4.099,6.589-13.416,7.494-21.637.399-3.626.996-9.042,2-10.175.251.11.786.573,1.427,1.756,1.513,2.786,2.529,7.194,3.147,11.642-1.068,7.505-1.294,14.964-.442,17.013.5,1.201,1.503,1.918,2.684,1.918,2.892,0,3.242-3.539,3.374-4.871.21-2.127.18-7.836-.582-13.887.983-6.655,2.12-10.373,2.933-12.239.328,1.705.539,4.298.708,6.368.644,7.906,1.446,17.744,7.602,22.358,3.029,2.272,6.946,2.936,11.644,1.966.467-.096.923-.203,1.369-.321.51.249,1.042.464,1.596.642,1.948.631,4.909.752,7.942-2.235,1.838-1.81,3.461-4.625,4.865-8.115,2.253,8.607,5.09,9.737,6.298,10.22,3.298,1.313,6.735-.577,10.223-5.624.785-1.136.5-2.693-.635-3.479ZM298.222,274.693c-1.737,2.111-4.252,3.771-7.5,4.97-.171-.048-.341-.105-.511-.174-3.436-1.381-6.378-6.714-5.061-13.878,1.433-7.797,5.93-12.716,9.449-12.967.089-.007.177-.01.264-.01,2.817,0,4.351,3.283,5.022,5.283.188.559.404,1.268.606,2.089.144,1.568.317,3.364.518,5.428.048.49.097.995.147,1.514-.194,2.634-.993,5.384-2.937,7.745ZM297.644,323.653c-1.226.81-5.384,3.229-7.411.443-2.456-3.377-1.098-14.352,12.905-25.933.062,11.999-1.162,22.632-5.495,25.489ZM321.225,252.104c-1.169-.727-1.523-1.526-1.535-1.657.072-.108.552-.463,1.773-.655.073-.012.156-.025.249-.025.328,0,.764.167,1.207,1.172.25.565.438,1.236.561,2.003-1.1-.188-1.898-.615-2.255-.837ZM357.658,279.696c-.09.034-.179.067-.267.1-.869-1.287-1.291-3.157-1.491-4.854-1.042-8.862,3.199-20.809,7.691-21.664.208-.04.413-.059.614-.059,2.531,0,4.539,3.004,5.384,6.005.024.087.048.176.072.266.122,1.131.283,2.304.48,3.499.149,5.54-2.403,12.898-12.484,16.707ZM440.631,264.185c-.333,5.569-3.346,12.507-10.59,15.387-1.414-1.231-2.389-3.097-2.912-5.574-1.538-7.289,1.457-16.43,5.163-19.733,1.076-.959,1.944-1.185,2.549-1.185.389,0,.669.094.825.146,3.245,1.085,5.287,5.592,4.965,10.96Z" fill="{{design_color}}"/>
    <path d="M476.501,261.548l-.597.303c-4.975,2.522-6.648,3.37-11.886,2.914-1.368-.128-2.588.896-2.708,2.272-.121,1.375.896,2.588,2.272,2.708,1.033.091,1.97.135,2.834.135,4.709,0,7.292-1.31,11.75-3.57l.593-.301c1.232-.623,1.725-2.128,1.102-3.359-.624-1.232-2.128-1.727-3.359-1.102Z" fill="{{design_color}}"/>
  </g>
</svg>
