<?xml version="1.0" encoding="UTF-8"?>
<svg id="Layer_1" data-name="Layer 1" xmlns="http://www.w3.org/2000/svg" viewBox="0 0 657.82 195.43">
  <defs>
    <style>
      .cls-1, .cls-2 {
        fill: #231f20;
      }

      .cls-2 {
        font-family: Quicksand-Regular, Quicksand;
        font-size: 16px;
        letter-spacing: .2em;
        stroke: #000;
        stroke-miterlimit: 10;
        stroke-width: .5px;
      }
    </style>
  </defs>
  <path class="cls-1" d="M657.7,124.98c-.27-.86-.99-1.51-1.87-1.7-4.87-1.03-10.09-.57-14.71,1.29-.22.09-.49.19-.8.31-2.73,1.03-6.72,2.54-7.68,5.52-4.74.86-9.15,1.39-14.29,1.34.44-.47.82-.9,1.12-1.24l.41-.47c2.28-2.54,5.11-6.65,5.59-11.83.08-.82-.25-1.62-.88-2.15-.63-.53-1.48-.71-2.27-.49-4.98,1.38-8.78,3.38-11.63,6.13-.8.77-4.8,4.84-4.71,8.9,0,.03,0,.06,0,.09-2.25-.33-4.65-.74-7.27-1.24l-2.38-.46c-4.67-.9-9.51-1.82-14.17-2.98-3.4-.84-6.93-1.39-10.54-1.71,2.23-2.27,3.81-5.28,4.04-5.91,1.36-3.65.52-8.05-2.09-10.95,0,0,0,0-.01-.01-.93-1.02-2.51-1.1-3.53-.18-.32.29-.55.65-.68,1.03-.21.35-.72,1.13-1.18,1.82-4.6,6.96-6.53,10.48-5.84,12.91.1.34.21.65.33.93-15.4.11-31.4,3.58-44.2,6.86,17.45-8.33,33.97-18.49,49.34-30.37.31-.24.55-.55.71-.89.34.04.68.06,1.01.06.13,0,.26,0,.39,0,4.07-.17,7.57-2.44,10.17-4.4,5.69-4.28,10.71-9.62,14.69-15.57,2.59,10.78,10.64,23.7,15.84,26.98,2.45,1.54,4.94,2.33,7.26,2.33.97,0,1.91-.14,2.8-.42,3.45-1.09,6.17-4.39,6.93-8.42,1.2-6.32-3.77-20.14-10.86-29.11,3.95,1.08,7.97,1.99,12.09,2.47,2.1.25,4.16.37,6.17.37,6.46,0,12.36-1.27,17.33-3.76.64-.32,2.61-1.31,2.99-3.45.2-1.11-.11-2.04-.41-2.74-2.02-4.8-6.9-8.21-14.51-10.14-5.92-1.5-11.8-2.23-17.61-2.19,4.7-2.68,9.15-5.78,13.22-9.27,2.67-2.29,5.61-5.13,7.16-8.86,1.21-2.89,1.44-5.96,1.56-8.6.09-1.92.33-7.02-3.27-9.68-1.25-.93-2.85-1.45-4.74-1.55-4.3-.23-9.26,1.32-12.36,3.87-2.54,2.09-4.92,4.68-7.48,8.17-2.04,2.77-4.76,6.8-7.47,10.86,1.95-12.15,1.11-25.98-3.8-32.8-.79-1.1-1.71-2.22-3.09-2.95-1.65-.88-3.6-.97-5.48-.26-2.26.86-4.2,2.81-5.04,5.08-1.22,3.29-1.39,7.39-1.42,10.19-.05,5.1.72,10.53,1.7,15.7-.52-.71-1.03-1.36-1.49-1.91-4.38-5.2-7.74-7.71-13.85-10.33-3.23-1.39-7.44-2.74-11.29-.87-1.1.54-1.89,1.27-2.34,2.18-.69,1.39-.42,2.79-.29,3.47.69,3.57,2.03,6.94,3.98,10,1.73,2.72,3.89,5.09,5.96,7.25.98,1.02,1.91,2,2.81,2.95.73.77,1.44,1.52,2.15,2.25-7.49-2.11-15.45-2.45-23.11-.89-1.68.34-6.78,1.37-8.69,5.59-1.37,3.02-.56,6.9,2.03,9.66,2.12,2.25,4.96,3.45,7.46,4.33,6.56,2.31,13.6,3.47,20.62,3.47.89,0,1.79-.04,2.68-.07-3.55,2.96-6.93,6.52-9.91,9.65-1.46,1.53-2.83,2.98-4.07,4.2t0,0c-2.66,2.61-5.31,5.82-4.81,9.84.28,2.26,1.53,4.06,3.21,5.33-8.58,6.54-17.52,12.55-26.78,17.99,5.86-10.58-.05-24.4-3.38-32.19l-10.47-24.44c.05-.8-.28-1.57-.89-2.08l-.63-1.47c-.4-.93-1.29-1.5-2.32-1.52-1.01,0-1.91.62-2.29,1.56-5.81,14.27-8.61,29.95-8.11,45.35.13,3.95,1.48,8.8,3.61,12.96,1.78,3.49,4.86,7.98,9.39,9.61.17.06.34.11.52.17-9.78,4.95-19.86,9.32-30.22,13.06-.22.08-.42.2-.6.33-7.1.95-14.05,2.43-20.82,4.44,2.73-2.84,4.99-5.78,6.85-8.67.79.67,1.76,1.14,2.9,1.36.54.11,1.1.16,1.67.16,4.59,0,10.1-3.12,12.18-4.98.22-.2.9-.81,1.09-1.83.16-.88-.09-1.76-.67-2.43-1-1.14-2.52-1.17-2.96-1.14h0c-3.18.15-6.85.47-10.05,1.43,1.63-3.4,2.79-6.48,3.7-8.88l.38-1c4.87-1.66,9.14-10.91,9.51-12.06,1.63-4.99.95-9.72-1.82-12.64-.48-.51-1.12-.76-1.84-.78-.7,0-1.36.31-1.83.82-1.27,1.41-12.33,13.93-10.06,20.91.33,1.02.75,1.77,1.22,2.35l-.24.64c-.31.81-.64,1.69-.99,2.61-1.62-2.96-3.97-5.56-5.09-6.42-2.31-1.77-4.96-2-6.77-.59-1.15.9-1.78,2.3-1.88,4.17-.19,3.36,1.94,9.05,5.28,11.84,1.2,1,2.36,1.48,3.41,1.68-3.91,6.68-9.86,13.79-19.5,19.16-2.3,1.01-4.57,2.08-6.82,3.22-11.98,3.74-20.78,3.84-26.15.32-6.59-4.32-7.6-13.84-8.4-21.49-.74-6.97-1.48-14.21-7.68-13.85-1.13.06-2.8.56-4.31,2.57-.77,1.03-1.45,2.4-2.03,4.02-1.27-3.51-3.05-6.03-5.58-6.51-1.34-.25-2.62.02-3.71.79-3,2.12-3.8,7.4-4.92,14.72-1.33,8.68-2.98,19.47-8.8,21.44-.4.13-1.23.41-2.59-1.28-2.3-2.87-3.88-8.29-4.82-13.86.18-.79.34-1.6.49-2.43.72-3.97,1.09-8.17,1.04-11.84-.08-5.58-1.02-7.08-2.51-7.68-1.06-.43-2.55-.22-3.52,1.21-.52.76-.88,1.86-1.12,3.14-1.6-2.17-3.63-3.7-6.04-4.19-1.76-.36-5.18-.33-8.35,3.86-5.79,7.65-7.69,24.72-3.63,32.61.11.21.22.41.33.6-1.41-.03-2.93-.18-4.59-.47-9.36-1.64-11.43-15.02-12.94-24.78-.88-5.7-1.46-9.46-3.45-11.12-1.02-.85-2.34-1.01-3.53-.45-2.28,1.08-4.36,6.28-6,12.48-1.65-5.77-3.98-11.23-7.03-12.37-1.43-.54-2.99-.2-4.28.93-1.7,1.48-3.26,4.98-4.59,9.32-1.76-6.07-4.09-9.42-7.1-10.24-1.35-.36-2.67-.17-3.83.55-3.24,2.03-4.46,7.69-6.17,16.75-1.47,7.78-3.49,18.44-7.44,19.61-.21.06-.85.25-2.04-1.05-2.63-2.89-4.73-9.31-6.12-15.76,1.92-8.67,1.94-17.98-1.26-20.6-1.41-1.16-3.01-.89-3.96-.11-.91.75-1.41,2.46-1.58,4.77-1.89-2.44-4.17-4.03-6.56-4.22-2.05-.17-5.11.56-8.09,4.99-5.1,7.55-8,23.2-3.94,31.31.05.11.11.21.16.32-1.3.05-2.69.03-4.18-.06-8.91-.54-10.2-9.2-11.06-21.38-.54-7.73-1.06-15.03-6.73-15.91-2.19-.34-4.25.56-5.83,2.53-1.02,1.28-1.87,3.09-2.56,5.23-1.45-4.11-3.86-7.97-7.97-7.73-3.12.17-5.74,2.73-7.82,7.63-.72-2.52-1.69-4.57-2.95-5.81-1.22-1.2-2.71-1.76-4.29-1.63-4.7.38-6.4,6.31-8.38,13.18-.91,3.17-1.85,6.44-3.03,8.82-11.87,23.93-42.78,16.18-78.56,7.21-33.69-8.45-71.87-18.02-97.07,1.69-1.09.85-1.28,2.42-.43,3.51.85,1.09,2.42,1.28,3.51.43,23.27-18.21,58.6-9.35,92.77-.78,36.31,9.1,70.6,17.7,84.26-9.84,1.38-2.79,2.39-6.29,3.36-9.67.74-2.59,2.72-9.47,3.97-9.57.06,0,.15-.01.39.21,1.76,1.73,2.76,7.36,3.21,14.07-.73,4.13-1.23,8.59-1.38,12.56-.31,8.05.86,9.32,2.19,9.99.91.46,2.38.53,3.55-.78.37-.42.6-.95.63-1.51.17-2.79.63-11.61.05-20.18.92-4.95,2.29-9.7,4.15-12.6.77-1.2,1.55-1.91,2.14-1.94.12-.01.47-.03,1.09.71,2.18,2.59,3.49,9.1,4.21,15.71-.72,8.87-.31,17.56.36,19.24.58,1.47,2,1.94,3.11,1.63,1.83-.5,2.41-1.42,2.23-10.31-.05-2.37-.2-6.41-.68-10.87.57-6.65,1.77-13.16,3.96-15.64.56-.63.86-.58,1.03-.56,1.73.27,2.2,6.92,2.51,11.32.75,10.62,1.78,25.17,15.75,26.02,3.65.22,6.83.04,9.58-.43.7.22,1.45.36,2.23.39,6.21.3,11.53-4.12,15.12-12.5.83,2.54,1.72,4.79,2.61,6.48,3.47,6.56,7.21,7.04,9.74,6.3,6.88-2.04,8.94-12.94,10.94-23.47.88-4.63,2.33-12.32,3.83-13.39.22.09,1.03.54,2.07,2.73,1.71,3.57,2.86,9.2,3.52,14.68-1.25,7.3-1.76,14.25-1.15,16.93.44,1.93,1.52,2.6,2.34,2.83,1,.28,2.05,0,2.81-.75,2.11-2.08,1.99-10.81,1.04-18.9.09-.52.19-1.05.29-1.59,1.78-9.29,3.81-14.24,4.96-15.73,2.04,2.26,4.44,11.21,5.9,19.3-.72,4.55-1.11,8.59-1.1,10.93.02,2.7.33,5.6,2.54,6.61,1.04.48,2.2.36,3.1-.31.96-.72,2.76-2.06.97-14.59-.09-.62-.23-1.6-.44-2.84,1.14-6.64,2.9-13.89,4.45-17.62.37,1.67.71,3.87.99,5.67,1.64,10.62,4.13,26.68,17.02,28.94,4.65.81,8.84.7,12.47-.29,5.63-.19,10.18-3.82,13.31-10.45.92,2.89,2.12,5.68,3.68,7.74,3.14,4.12,6.54,3.74,8.3,3.15,8.71-2.94,10.61-15.4,12.14-25.42.63-4.13,1.58-10.32,2.79-11.34.73.35,2.79,3.61,3.86,14.34-1,8.97-.85,18.3-.25,20.85.58,2.51,2.38,2.55,2.93,2.5,2.54-.23,2.68-3.12,2.83-6.17,0-.17.4-8.66-.44-17.42,1.3-10.84,3.5-13.91,4.17-14.12h.03c1.41,0,1.99,5.42,2.41,9.39.87,8.24,2.07,19.52,10.63,25.14,3.46,2.27,7.74,3.4,12.93,3.4s10.88-1.06,17.64-3.19c.03,0,.05-.02.08-.03.03-.01.06-.02.09-.03,2.57-1.02,4.93-2.15,7.13-3.37,23.42-10.24,49.8-13.31,77.21-8.99-1.62.57-3.72,1.52-4.84,3.64-1.27,2.41-.63,5,.16,7.21,1.26,3.51,3.24,7.76,7.4,9.44,1.27.51,2.58.71,3.87.71,2.04,0,4.01-.5,5.67-1.01,1.64-.5,3.24-1.09,4.82-1.74-1.55,2.68-2.64,5.68-2.23,8.97.25,2.03,1.06,3.82,1.77,5.39,1.02,2.27,2.73,6.06,6.33,7.54.71.29,1.68.45,2.79.45,1.96,0,4.35-.5,6.44-1.62,2.62-1.41,4.27-3.55,4.78-6.18.52-2.68.56-6.24.38-9.73,1.39,1.55,2.95,2.94,4.66,4.11,1.14.78,2.19,1.37,3.22,1.81,1.8.76,3.73,1.15,5.67,1.15,1.36,0,2.73-.19,4.06-.58,2.12-.62,3.77-1.65,4.89-3.07,1.99-2.51,2.23-6.25.6-9.53-1.28-2.58-3.42-4.47-5.53-6.14-5.1-4.01-9.55-6.8-14.89-9.3-.26-.12-.54-.19-.81-.21-.28-1.77-.98-3.28-2.11-4.45-.37-.38-.85-.64-1.37-.73-1.51-.27-2.91.11-3.92.39-1.11.3-2.45.67-3.7,1.42-.18-.12-.37-.22-.59-.29-4.52-1.48-9.94-1.65-16.4-.53-.2-.1-.4-.19-.63-.24-8.68-1.89-17.29-3.07-25.77-3.55,17.96-4.65,42.56-9.81,62.06-4.99,2.71.67,5.46,1.26,8.19,1.81-.37,5.34,6.56,13.75,6.65,13.84,1.44,1.46,3.06,2.95,5.13,3.93,1.42.68,2.91,1.02,4.35,1.02,1.1,0,2.17-.2,3.14-.61h.01c1.27-.54,1.87-2.01,1.33-3.28-.11-.25-.25-.48-.42-.67-.21-.31-.73-1.16-1.24-1.98-2.7-4.36-4.76-7.54-6.39-9.85,11.49,1.97,19.03,2.04,26.47,1.09.12.76.44,1.57,1.02,2.43,1.8,2.62,6.31,5.6,9.86,5.6.71,0,1.38-.12,1.98-.38h0c.92-.4,1.52-1.33,1.5-2.33,0-.63-.93-3.02-2.43-5.38.55-.12,1.1-.25,1.64-.39,2.87-.79,5.45-2.08,7.95-3.33,2.46-1.23,5.25-2.62,7.42-4.94.62-.66.83-1.6.56-2.46ZM598.01,55.11c.76,0,1.56.06,2.33.13.39.22,1.24,1.17,1.89,2.81.69,1.75.66,3.07.5,3.37-1.07,1.59-3.55,1.96-5.33,1.5-1.73-.45-3.15-1.53-3.79-2.88-.6-1.29-.41-2.91.45-3.79.88-.89,2.35-1.14,3.95-1.14ZM622.72,99.17c-.42,2.21-1.84,4.05-3.52,4.58-2.16.67-4.62-.57-5.9-1.38-4.82-3.04-15.2-20.6-14.3-30.09.29-3.11,1.74-4.02,2.8-4.44.54-.21,1.1-.32,1.69-.32,1.65,0,3.49.83,5.49,2.49,8.26,6.85,14.79,23.65,13.75,29.15ZM650.22,65.56s-.06.03-.1.05c-5.63,2.82-12.78,3.82-20.67,2.89-7.28-.86-14.47-3.17-21.43-5.41-.18-.06-.36-.09-.54-.11.49-1.44.39-3.04.12-4.38,10.21-2.74,20.83-2.75,31.61-.02,5.85,1.49,9.55,3.83,11.02,6.97ZM620.93,28.6c2.31-3.14,4.42-5.45,6.63-7.27,2.13-1.75,5.87-2.89,8.91-2.74.89.05,1.59.25,2.04.58,1.3.96,1.33,3.56,1.25,5.42-.1,2.22-.29,4.77-1.18,6.91-1.15,2.75-3.47,4.99-5.8,6.99-7.89,6.77-17.27,12.03-27.16,15.26-.29-.45-.62-.9-1-1.33,2.24-3.09,5.15-7.45,7.99-11.68,3-4.49,6.1-9.13,8.32-12.14ZM598.5,36.8c-1.43-6.62-2.95-14.25-2.89-21.01.03-3.8.4-6.58,1.11-8.49.35-.93,1.2-1.8,2.13-2.15.53-.2.98-.2,1.35,0,.48.25.95.85,1.39,1.46,5.29,7.36,5.37,31.05-1.53,43.59-.07,0-.14,0-.21-.02,0-.15-.02-.3-.03-.45.48-4.5-.46-8.96-1.32-12.92ZM571.24,31.31c-1.59-2.5-2.73-5.36-3.29-8.27-.02-.09-.03-.16-.04-.23,2.02-.95,4.84.03,7.08.99,5.35,2.29,8.15,4.38,11.99,8.96,3.7,4.4,7.3,11.29,7.81,16.91,0,.03,0,.07-.01.11-.03.23-.02.45,0,.66-1.15.26-2.28.72-3.3,1.45-.38-.28-.78-.51-1.2-.72-4.13-3.32-7.29-6.65-10.87-10.42-.91-.96-1.84-1.95-2.83-2.97-1.89-1.97-3.85-4.12-5.35-6.47ZM557.29,60.41c-2.03-.71-4.1-1.58-5.48-3.04-1.01-1.07-1.72-2.85-1.12-4.16.57-1.25,2.29-2.18,5.13-2.75,9.57-1.94,19.65-.62,28.4,3.73.67.33,1.42.58,2.14.82.35.12.86.29,1.31.47.29.23.6.46.9.7-.52,1.93-.39,4.08.51,5.99,0,0,0,0,0,.01-.1.01-.2.01-.3.04-10.32,2.35-21.51,1.71-31.49-1.8ZM568.46,85.94c1.3-1.28,2.71-2.76,4.2-4.32,4.96-5.22,11.13-11.71,16.58-13.78,2.59-.98,3.99-.74,4.41-.25.62.74.64,3.24-1.27,6.5-3.88,6.59-9.16,12.51-15.28,17.11-2.15,1.62-4.71,3.29-7.38,3.4-2.01.09-4.38-1.18-4.61-3.01-.23-1.86,1.56-3.9,3.35-5.65ZM530.47,115.57c-2.04,2.32-3.74,3.11-5.02,3.3,1.21-9.17-.58-18.3-2.32-27.13-.22-1.12-.44-2.24-.66-3.36-1.34-7.02-2.37-14.29-1.62-21.14l7.74,18.07c4.85,11.32,8.43,22.82,1.87,30.26ZM513.49,100.59c-.27-8.36.5-16.8,2.21-25.04.26,4.62,1,9.26,1.87,13.78.21,1.13.44,2.25.66,3.38,1.58,8.03,3.21,16.31,2.41,24.31-3.87-3.46-6.98-10.96-7.16-16.43ZM259.69,137.03c-.34,4.82-2.58,12.11-12.56,14.46-.49-.36-.99-.93-1.44-1.83-3.1-6.19-.59-20.05,3.61-26.28,1.21-1.79,2.45-2.81,3.43-2.81.04,0,.08,0,.11,0,2.66.21,7.48,7.48,6.84,16.45ZM362.18,138.9c-.81,4.27-3.18,10.39-10.06,12.62-.56-.07-1.44-.42-2.28-2.05-3.18-6.18-1.43-21.24,3.17-27.31,1.01-1.34,2.01-2.01,2.97-2.01.14,0,.27.01.41.04,3.96.8,7.49,9.77,5.8,18.71ZM566.27,174.38c-.21,1.08-.88,1.94-2.04,2.62-1.99,1.17-4.54,1.27-5.17,1.07-1.62-.67-2.66-2.73-3.67-4.97-.59-1.32-1.21-2.68-1.37-3.96-.37-2.96,1.54-6.03,3.45-8.64.22-.3.45-.63.69-.96.95-1.33,2.32-3.25,3.68-4.45.14-.09.28-.18.41-.28.15-.1.28-.22.4-.35.43-.28.85-.46,1.25-.5.03,0,.08,0,.14,0,.24,0,.69.07,1.34.57.47,3.15,1.99,14.19.88,19.86ZM586.04,157.29c1.92,1.51,3.35,2.84,4.15,4.44.75,1.5.73,3.22-.04,4.19-.58.73-1.61,1.15-2.37,1.37-2.07.6-4.39.47-6.37-.37-.72-.31-1.49-.74-2.35-1.33-4.52-3.1-7.79-8-8.99-13.35,1.26-.71,2.28-1.86,2.89-3.24,4.61,2.23,8.58,4.74,13.09,8.3ZM564.61,144.94c.66-.51,1.71-.79,2.72-1.07.29-.08.6-.16.89-.22.39.91.37,2.03.31,2.72-.07.81-.74,1.62-1.34,1.65-.53,0-1.36-.46-2.37-1.42-.59-.56-.71-.79-.73-.86-.01-.1.13-.49.53-.79ZM559.2,144.65c-.16.78-.16,1.59.05,2.36.3,1.14.95,2,1.63,2.72-.72.36-1.4.82-2.05,1.35-4.26,2.9-8.9,5.14-13.83,6.66-2.04.63-4.38,1.17-6.19.44-2.33-.94-3.67-3.97-4.57-6.5-.4-1.12-.81-2.49-.45-3.18.38-.73,1.92-1.22,2.84-1.51,9.58-3.06,16.98-3.83,22.57-2.34ZM608.82,146.45c-.26-.17-.55-.28-.85-.35.31.06.6.19.85.35ZM609.22,146.76c-.11-.11-.23-.2-.36-.29.13.09.25.18.36.29ZM607.52,146.05c.14,0,.27.02.4.04-.13-.02-.27-.04-.4-.04ZM607.43,146.05c-.12,0-.25.02-.37.04.13-.02.25-.03.37-.04ZM606.96,146.11c-.15.03-.31.08-.46.14h0c.15-.06.3-.11.46-.14Z"/>
  <text class="cls-2" transform="translate(208.69 191.73)"><tspan x="0" y="0">DE LEON &amp; LIANA</tspan></text>
</svg>