<?xml version="1.0" encoding="UTF-8"?>
<svg id="Layer_1" data-name="Layer 1" xmlns="http://www.w3.org/2000/svg" viewBox="0 0 608.55 202.29">
  <defs>
    <style>
      .cls-1, .cls-2 {
        fill: #231f20;
      }

      .cls-2 {
        font-family: Quicksand-Regular, Quicksand;
        font-size: 18px;
        stroke: #000;
        stroke-miterlimit: 10;
        stroke-width: .5px;
      }

      .cls-3 {
        letter-spacing: .19em;
      }

      .cls-4 {
        letter-spacing: .2em;
      }

      .cls-5 {
        letter-spacing: .2em;
      }
    </style>
  </defs>
  <text class="cls-2" transform="translate(160.07 198.15)"><tspan class="cls-5" x="0" y="0">DE JULIA ET HUBE</tspan><tspan class="cls-3" x="213.19" y="0">R</tspan><tspan class="cls-4" x="228.58" y="0">T</tspan></text>
  <g>
    <path class="cls-1" d="M344.45,106.91s.05,0,.07,0l3.07-.09c1.07-.03,2-.74,2.32-1.76.31-1.01.31-2.09,0-3.1-.31-1-1.21-1.69-2.25-1.75l-1.8-.1c-1.33-.07-2.41.85-2.61,2.11-.8.44-1.33,1.29-1.3,2.26.04,1.36,1.15,2.43,2.5,2.43Z"/>
    <path class="cls-1" d="M608.44,124.98c-.27-.86-.99-1.51-1.87-1.7-4.87-1.03-10.09-.57-14.71,1.29-.22.09-.49.19-.8.31-2.73,1.03-6.72,2.54-7.68,5.52-4.74.86-9.15,1.39-14.29,1.34.44-.47.82-.9,1.12-1.24l.41-.47c2.28-2.54,5.11-6.65,5.59-11.83.08-.82-.25-1.62-.88-2.15s-1.48-.71-2.27-.49c-4.98,1.38-8.78,3.38-11.63,6.13-.8.77-4.8,4.84-4.7,8.9,0,.03,0,.06,0,.09-2.25-.33-4.65-.74-7.27-1.24l-2.38-.46c-4.68-.9-9.51-1.82-14.18-2.98-3.4-.84-6.94-1.39-10.54-1.71,2.23-2.27,3.81-5.28,4.04-5.91,1.36-3.65.52-8.05-2.09-10.95,0,0,0,0-.01-.01-.93-1.02-2.51-1.1-3.53-.18-.32.29-.55.65-.68,1.03-.21.35-.72,1.13-1.18,1.82-4.6,6.96-6.53,10.48-5.84,12.91.1.34.21.65.33.93-15.4.11-31.4,3.58-44.2,6.86,17.45-8.33,33.97-18.49,49.34-30.37.32-.24.55-.55.71-.89.34.03.67.06,1.01.06.13,0,.26,0,.39,0,4.06-.17,7.57-2.44,10.17-4.4,5.69-4.28,10.71-9.62,14.69-15.57,2.59,10.78,10.64,23.7,15.84,26.98,2.45,1.54,4.94,2.33,7.26,2.33.97,0,1.91-.14,2.8-.42,3.45-1.09,6.17-4.39,6.93-8.42,1.2-6.32-3.77-20.13-10.86-29.11,3.94,1.08,7.97,1.99,12.09,2.47,2.1.25,4.16.37,6.17.37,6.46,0,12.36-1.27,17.33-3.76.65-.32,2.61-1.31,2.99-3.45.2-1.12-.14-2.1-.41-2.74-2.01-4.8-6.9-8.21-14.51-10.14-5.92-1.5-11.8-2.23-17.61-2.19,4.69-2.68,9.14-5.78,13.21-9.27,2.67-2.29,5.61-5.13,7.16-8.86,1.2-2.9,1.44-5.96,1.56-8.6.09-1.92.33-7.02-3.27-9.68-1.25-.93-2.85-1.45-4.74-1.55-4.3-.24-9.26,1.32-12.36,3.87-2.54,2.09-4.92,4.69-7.48,8.17-2.04,2.77-4.76,6.8-7.47,10.86,1.95-12.15,1.11-25.98-3.8-32.8-.79-1.1-1.71-2.22-3.09-2.95-1.65-.88-3.6-.97-5.48-.26-2.26.86-4.2,2.81-5.04,5.08-1.22,3.28-1.39,7.39-1.42,10.19-.05,5.1.72,10.53,1.7,15.7-.52-.71-1.03-1.36-1.49-1.91-4.38-5.2-7.74-7.71-13.85-10.33-3.24-1.39-7.44-2.74-11.29-.86-1.1.54-1.89,1.27-2.34,2.18-.69,1.39-.42,2.79-.29,3.47.69,3.57,2.03,6.94,3.98,10.01,1.74,2.73,3.89,5.1,5.96,7.25.98,1.02,1.91,2,2.81,2.95.73.77,1.43,1.51,2.14,2.24-7.49-2.11-15.45-2.45-23.11-.89-1.68.34-6.78,1.37-8.69,5.59-1.37,3.02-.55,6.9,2.03,9.65,2.12,2.25,4.96,3.45,7.46,4.33,6.56,2.31,13.6,3.47,20.62,3.47.89,0,1.79-.04,2.68-.07-3.55,2.96-6.93,6.52-9.91,9.65-1.46,1.53-2.83,2.98-4.07,4.2h0c-2.66,2.61-5.31,5.82-4.81,9.84.28,2.26,1.53,4.06,3.21,5.33-8.58,6.54-17.52,12.55-26.78,17.99,5.86-10.58-.05-24.41-3.38-32.19h0s-10.47-24.44-10.47-24.44c.05-.8-.28-1.57-.89-2.08l-.63-1.47c-.39-.92-1.3-1.52-2.3-1.52h-.02c-1.01,0-1.91.62-2.29,1.56-5.81,14.27-8.61,29.95-8.11,45.35.13,3.95,1.48,8.8,3.61,12.96,1.78,3.49,4.86,7.98,9.39,9.61.17.06.34.11.52.17-9.78,4.95-19.86,9.32-30.22,13.06-.22.08-.42.2-.6.33-7.1.95-14.06,2.43-20.82,4.44,2.73-2.84,4.99-5.78,6.85-8.66.79.67,1.76,1.14,2.9,1.36.54.11,1.1.16,1.67.16,4.59,0,10.1-3.12,12.18-4.98.22-.2.9-.8,1.09-1.84.16-.88-.09-1.76-.68-2.43-1-1.14-2.51-1.16-2.96-1.14-3.18.15-6.85.47-10.05,1.43,1.63-3.4,2.79-6.47,3.69-8.88l.38-1c4.87-1.66,9.14-10.91,9.52-12.06,1.63-4.99.95-9.72-1.82-12.64-.48-.51-1.16-.77-1.84-.78-.7,0-1.36.31-1.83.82-1.27,1.41-12.33,13.92-10.06,20.91.33,1.02.75,1.77,1.22,2.35l-.24.64c-.31.81-.64,1.68-.99,2.6-1.62-2.96-3.97-5.56-5.09-6.42,0,0,0,0,0,0-2.31-1.77-4.96-2-6.77-.59-1.14.9-1.78,2.3-1.88,4.17-.19,3.36,1.94,9.05,5.28,11.84,1.2,1,2.36,1.48,3.41,1.68-3.91,6.67-9.85,13.79-19.49,19.16-2.33,1.02-4.64,2.11-6.92,3.27-13.37,5.58-23.15,6.1-28.27,1.49-.55-.5-1.04-1.04-1.47-1.63,11.34-6.1,15.87-18.03,14.42-25.65-1.04-5.46-5.06-8.47-10.22-7.69-4.96.75-8.62,7.34-10.39,13.25-1.6,5.34-2.22,11.86-.55,17.48-.79.29-1.55.51-2.27.68-3.12.72-5.68-.48-7.83-3.66-.72-1.06-1.33-2.24-1.86-3.5,1.85-8.92,2.07-18.69.15-22.17-1.02-1.85-2.55-2.05-3.16-2.05-.84,0-2.41.32-3.45,2.47-1.76,3.67-1.71,13.9,1.28,22.19-.82,3.58-1.95,6.97-3.45,9.52-.95,1.62-2.46,3.51-4.17,3.43-4.77-.27-6.35-10.91-7.62-19.47-1.41-9.48-2.62-17.66-8.31-18.13-3.86-.34-5.82,4.69-6.46,6.33-.25.66-.51,1.43-.77,2.29-2.19-5.88-4.7-8.64-7.8-8.64-2.66,0-4.58,2.39-6.28,7.89-.04-.1-.07-.2-.11-.3-1.87-5.04-4.45-7.59-7.67-7.59-6.37,0-8.23,9.02-10.38,19.46-1.58,7.65-3.73,18.12-7.53,18.57-1.33.16-2.58-1.33-3.42-2.6-1.87-2.84-3.3-7.09-4.31-11.57,2.01-7.18,2.38-14.57,1.81-18.53-.69-4.78-2.76-5.78-4.37-5.78-.61,0-2.15.2-3.13,2.07-.26.49-.47,1.11-.64,1.83-2.32-2.33-5.19-3.17-8.19-2.36-5.21,1.4-9.45,7.08-11.63,15.56-1.73,6.72-1.99,15.4.87,20.87-10.31-.37-12.84-11.33-14.88-24.53-1.12-7.28-1.94-12.54-6.03-12.99-4.13-.47-6.37,5.04-7.1,6.85-.24.58-.48,1.25-.73,1.97-.7-2.24-1.53-4.3-2.5-5.84-2.49-3.94-5.3-3.32-6.39-2.86-2.83,1.17-5.01,4.7-6.65,8.67-1.13-2.81-2.62-5.37-4.59-7.15-.65-.59-2.62-2.37-5.08-1.76-2.9.73-4.05,3.92-5.77,8.74-3.22,8.99-8.08,22.57-26.11,27.42-12.17,3.27-32.7-1.6-54.44-6.77-35.63-8.46-76.02-18.05-100.29,1.66-1.07.87-1.23,2.45-.36,3.52.87,1.07,2.45,1.23,3.52.36,22.36-18.16,61.47-8.88,95.98-.68,23.34,5.54,43.5,10.33,56.89,6.73,20.55-5.53,26.17-21.2,29.52-30.56.73-2.03,1.61-4.49,2.25-5.4.13.09.31.23.54.43,2.6,2.35,4.26,6.98,5.24,12.05-.62,2.54-.99,4.63-1.15,5.59-.92,5.55-1.95,15.32,1.5,18.36,1.24,1.09,3.01.98,4.11-.26,2.86-3.21,1.45-17.8,1.43-17.95-.16-1.6-.41-3.55-.79-5.63,1.91-7.38,4.29-11.59,5.85-12.6,1.08,1.02,3.06,5.52,4.59,14.49-1.76,9.19-2.42,19.54.76,22.04,1.25.97,2.84.94,3.96-.07,1.88-1.7,2.2-7.66.95-17.73-.11-.93-.32-2.44-.62-4.26.4-2.04.89-4.1,1.46-6.12,1.35-4.78,2.62-7.03,3.34-7.89.69,1.57,1.29,5.45,1.75,8.4,1.75,11.34,4.4,28.49,20.01,28.77,1.69.03,3.31-.08,4.86-.32,1.54.56,3.5.72,5.92,0,5.13-1.52,8.81-5.62,11.37-10.64.96,2.72,2.07,5.12,3.3,6.91,2.87,4.16,5.92,4.74,7.97,4.5,7.37-.88,9.64-11.89,11.83-22.53,1.11-5.4,3.19-15.47,5.48-15.47.4,0,.98.5,1.54,1.34,1.83,2.74,3.03,7.79,3.76,13.09-.46,3-.82,6.14-1.05,9.16-.87,11.54.74,12.43,1.92,13.08,1.04.57,2.29.44,3.19-.33.64-.55,2.35-2.02,1.69-14.27-.09-1.65-.28-4.42-.7-7.58,1.33-8.37,2.98-12.91,3.96-14.27.39.34,1.12,1.18,2.05,3.19,1.34,2.91,2.42,6.65,3.24,10.51-1.54,9.45-1.99,20.32,1.25,22.81,1.19.91,2.63.98,3.77.18,3.33-2.33,1.74-14.4,0-22.93.3-1.8.65-3.62,1.07-5.39,1.32-5.59,2.65-7.86,3.25-8.49,1.62.96,2.9,9.56,3.53,13.8,1.62,10.89,3.45,23.23,12.28,23.72,2.24.13,5.51-.7,8.44-5.36,1.05-1.67,1.98-3.77,2.78-6.11.14.2.29.39.44.57,3.25,4.06,7.47,5.63,12.22,4.55,1.12-.26,2.19-.56,3.23-.92.76,1.21,1.69,2.32,2.79,3.32,3.27,2.95,7.61,4.42,12.97,4.42,5.72,0,12.61-1.68,20.63-5.03,0,0,0,0,0,0,2.55-1.01,4.9-2.14,7.08-3.35,23.42-10.24,49.81-13.31,77.21-8.99-1.62.57-3.72,1.52-4.84,3.64-1.44,2.73-.36,5.75.16,7.21,1.26,3.51,3.24,7.76,7.4,9.44,1.27.51,2.58.71,3.87.71,2.04,0,4.01-.5,5.67-1.01,1.64-.5,3.24-1.09,4.82-1.74-1.55,2.68-2.64,5.68-2.23,8.97.25,2.03,1.06,3.82,1.77,5.39,1.02,2.27,2.73,6.06,6.33,7.54.71.29,1.68.45,2.79.45,1.96,0,4.35-.5,6.44-1.62,2.62-1.41,4.27-3.55,4.79-6.18.52-2.68.56-6.24.38-9.73,1.39,1.55,2.95,2.94,4.66,4.11,1.13.78,2.19,1.37,3.23,1.81,1.8.76,3.73,1.15,5.67,1.15,1.36,0,2.73-.19,4.06-.58,2.12-.62,3.77-1.65,4.89-3.07,1.99-2.51,2.23-6.25.6-9.53-1.28-2.57-3.42-4.47-5.53-6.14-5.1-4.02-9.55-6.8-14.89-9.3-.26-.12-.54-.19-.81-.21-.28-1.77-.98-3.28-2.11-4.45-.37-.38-.85-.64-1.37-.73-1.51-.27-2.91.11-3.92.39-1.11.3-2.45.67-3.7,1.42-.18-.12-.37-.22-.59-.29-4.52-1.48-9.94-1.65-16.4-.53-.2-.1-.41-.19-.64-.24-8.68-1.89-17.29-3.07-25.77-3.55,17.96-4.65,42.56-9.81,62.05-4.99,2.71.67,5.46,1.26,8.19,1.81-.37,5.34,6.56,13.75,6.64,13.83,1.44,1.46,3.06,2.95,5.13,3.94,1.42.68,2.91,1.02,4.35,1.02,1.1,0,2.17-.2,3.14-.61h.01c1.27-.54,1.87-2.01,1.33-3.28-.11-.25-.25-.48-.42-.67-.21-.31-.73-1.16-1.24-1.98-2.7-4.36-4.76-7.54-6.39-9.85,11.49,1.97,19.03,2.04,26.47,1.09.12.76.44,1.58,1.02,2.43,1.8,2.62,6.31,5.6,9.86,5.6.71,0,1.37-.12,1.97-.38.92-.4,1.52-1.33,1.51-2.33,0-.63-.93-3.02-2.43-5.38.55-.12,1.11-.25,1.64-.39,2.86-.79,5.45-2.08,7.95-3.33,2.46-1.23,5.25-2.62,7.42-4.94.62-.66.83-1.6.56-2.46ZM548.74,55.11c.76,0,1.56.06,2.33.13.39.22,1.24,1.17,1.89,2.81.69,1.75.66,3.07.5,3.37-1.07,1.59-3.55,1.96-5.34,1.5-1.73-.45-3.15-1.53-3.79-2.88-.6-1.29-.41-2.91.45-3.79.88-.89,2.35-1.14,3.95-1.14ZM573.45,99.17c-.42,2.21-1.83,4.05-3.52,4.58-2.15.68-4.62-.57-5.9-1.38-4.82-3.04-15.2-20.6-14.3-30.09.29-3.11,1.74-4.02,2.8-4.44.54-.21,1.1-.32,1.69-.32,1.65,0,3.49.83,5.49,2.49,8.26,6.85,14.79,23.65,13.75,29.15ZM600.95,65.56s-.06.03-.1.05c-5.63,2.82-12.78,3.82-20.67,2.89-7.28-.86-14.48-3.17-21.43-5.41-.18-.06-.36-.09-.54-.11.49-1.44.39-3.04.12-4.38,10.21-2.74,20.84-2.75,31.61-.02,5.85,1.48,9.55,3.83,11.02,6.97ZM571.67,28.6c2.31-3.14,4.42-5.45,6.63-7.27,2.13-1.75,5.87-2.91,8.91-2.74.89.05,1.59.25,2.04.58,1.3.96,1.33,3.56,1.25,5.42-.1,2.22-.29,4.77-1.18,6.91-1.15,2.76-3.47,4.99-5.8,6.99-7.89,6.77-17.27,12.03-27.16,15.26-.29-.45-.62-.9-1-1.33,2.23-3.09,5.15-7.44,7.98-11.67,3-4.49,6.11-9.14,8.33-12.16ZM549.23,36.8c-1.43-6.62-2.95-14.25-2.89-21.01.01-1.4.05-5.65,1.11-8.49.35-.93,1.2-1.8,2.13-2.15.53-.2.99-.2,1.35,0,.48.25.95.85,1.38,1.46,5.29,7.36,5.37,31.05-1.53,43.58-.07,0-.14,0-.21-.02,0-.15-.02-.3-.03-.46.48-4.51-.46-8.96-1.32-12.92ZM521.98,31.31c-1.59-2.5-2.73-5.36-3.29-8.27-.02-.09-.03-.16-.04-.23,2.02-.95,4.84.03,7.08.99,5.34,2.29,8.15,4.39,11.99,8.96,3.7,4.4,7.3,11.29,7.81,16.91,0,.04,0,.07-.01.11-.03.23-.02.45,0,.66-1.15.26-2.28.72-3.3,1.45-.38-.28-.78-.51-1.2-.72-4.13-3.32-7.28-6.64-10.86-10.42-.91-.96-1.85-1.95-2.84-2.98-1.89-1.97-3.85-4.11-5.35-6.47ZM508.03,60.41c-2.03-.71-4.1-1.57-5.48-3.04-1.01-1.07-1.72-2.85-1.12-4.16.57-1.25,2.29-2.18,5.13-2.75,9.57-1.94,19.65-.62,28.4,3.73.67.33,1.42.58,2.14.82.35.12.86.29,1.3.46.29.23.6.46.91.7-.52,1.93-.39,4.08.51,5.99,0,0,0,0,0,.01-.1.01-.2.01-.3.04-10.32,2.35-21.5,1.71-31.5-1.8ZM519.19,85.95c1.3-1.28,2.71-2.76,4.2-4.32,4.96-5.22,11.14-11.72,16.58-13.78,2.58-.98,3.99-.74,4.41-.25.62.74.64,3.24-1.27,6.49-3.88,6.59-9.17,12.51-15.28,17.11-2.15,1.62-4.71,3.29-7.38,3.4-1.98.09-4.38-1.18-4.61-3.01-.23-1.86,1.56-3.9,3.35-5.65ZM481.21,115.57c-2.04,2.32-3.74,3.11-5.02,3.3,1.21-9.17-.58-18.29-2.32-27.12-.22-1.12-.44-2.24-.66-3.36-1.34-7.02-2.37-14.29-1.62-21.14l7.74,18.07c4.85,11.32,8.43,22.82,1.87,30.26ZM464.22,100.59c-.27-8.36.5-16.8,2.21-25.04.26,4.62,1,9.26,1.87,13.78.22,1.13.44,2.26.66,3.39,1.58,8.03,3.21,16.31,2.41,24.3-3.87-3.46-6.98-10.96-7.16-16.43ZM258.21,144.99c-1.66,3.45-4.84,7.4-10.92,8.82-.1-.08-.19-.16-.28-.25-2.88-2.78-3.56-11.05-1.56-18.83,1.67-6.5,4.77-11.09,8.09-11.98.17-.05.47-.13.86-.13.73,0,1.77.29,2.89,1.64,3.26,3.92,4.43,13.4.91,20.73ZM366.78,145.34c-1.1-4.48-.49-9.74.75-13.87,1.9-6.34,4.86-9.51,6.35-9.74.22-.03.54-.08.92-.08,1.23,0,3.02.52,3.64,3.77,1.66,8.71-4.93,15.98-11.65,19.92ZM517.01,174.38c-.21,1.08-.88,1.94-2.04,2.62-1.99,1.17-4.54,1.27-5.17,1.07-1.62-.67-2.66-2.73-3.67-4.97-.59-1.32-1.21-2.68-1.37-3.96-.37-2.96,1.54-6.03,3.45-8.64.22-.3.45-.63.69-.96.95-1.33,2.32-3.24,3.67-4.45.14-.1.28-.19.42-.28.15-.1.28-.22.4-.35.43-.28.85-.46,1.25-.49.18-.02.67-.06,1.48.57.47,3.15,1.99,14.18.88,19.86ZM536.77,157.29c1.92,1.51,3.36,2.84,4.15,4.44.75,1.5.73,3.22-.04,4.19-.58.73-1.61,1.15-2.38,1.37-2.07.6-4.39.47-6.37-.37-.73-.31-1.5-.74-2.35-1.33-4.51-3.1-7.78-8-8.99-13.35,1.26-.71,2.28-1.86,2.89-3.24,4.61,2.23,8.58,4.74,13.09,8.3ZM515.35,144.94c.66-.5,1.71-.79,2.72-1.07.29-.08.6-.16.89-.22.39.91.37,2.03.31,2.72-.07.81-.74,1.62-1.34,1.65-.52,0-1.36-.46-2.37-1.42-.58-.56-.71-.78-.73-.86-.01-.1.13-.49.53-.79ZM509.93,144.65c-.16.78-.16,1.59.05,2.36.3,1.14.95,2.01,1.63,2.72-.72.36-1.41.82-2.05,1.36-4.26,2.9-8.9,5.14-13.82,6.66-2.04.63-4.38,1.17-6.19.44-2.33-.94-3.67-3.97-4.57-6.5-.4-1.12-.81-2.49-.45-3.18.38-.73,1.92-1.22,2.84-1.51,9.58-3.06,16.98-3.83,22.57-2.34ZM559.56,146.45c-.26-.17-.55-.28-.85-.35.31.06.6.19.85.35ZM559.96,146.76c-.11-.11-.23-.2-.36-.29.13.09.26.18.36.29ZM558.26,146.05c.13,0,.27.02.39.04-.13-.02-.26-.04-.39-.04ZM558.16,146.05c-.12,0-.24.02-.36.04.12-.02.24-.03.36-.04ZM557.69,146.11c-.15.03-.3.08-.45.14h0c.15-.06.3-.11.45-.14Z"/>
  </g>
</svg>