<?xml version="1.0" encoding="UTF-8"?>
<svg id="Layer_1" data-name="Layer 1" xmlns="http://www.w3.org/2000/svg" viewBox="0 0 678.73 202.86">
  <defs>
    <style>
      .cls-1, .cls-2 {
        fill: #231f20;
      }

      .cls-2 {
        font-family: Quicksand-Regular, Quicksand;
        font-size: 16px;
        letter-spacing: .2em;
        stroke: #000;
        stroke-miterlimit: 10;
        stroke-width: .5px;
      }
    </style>
  </defs>
  <text class="cls-2" transform="translate(228.88 199.16)"><tspan x="0" y="0">DE LEON &amp; LIANA</tspan></text>
  <path class="cls-1" d="M678.62,124.98c-.27-.86-.99-1.51-1.87-1.7-4.87-1.03-10.09-.57-14.71,1.29-.22.09-.5.19-.8.31-2.73,1.03-6.72,2.54-7.68,5.52-4.74.86-9.15,1.39-14.29,1.34.44-.47.82-.9,1.12-1.24l.41-.47c2.28-2.54,5.1-6.65,5.59-11.83.08-.82-.25-1.62-.88-2.15s-1.48-.71-2.27-.49c-4.98,1.38-8.78,3.38-11.63,6.13-.8.77-4.8,4.84-4.7,8.9,0,.03,0,.06,0,.09-2.25-.33-4.65-.74-7.27-1.24l-2.37-.46c-4.68-.9-9.51-1.83-14.18-2.98-3.4-.84-6.93-1.39-10.54-1.71,2.23-2.27,3.81-5.28,4.04-5.91,1.36-3.65.52-8.05-2.09-10.95,0,0,0,0-.01-.01-.93-1.02-2.51-1.1-3.53-.18-.32.29-.55.65-.68,1.03-.21.35-.72,1.13-1.18,1.82-4.6,6.97-6.53,10.48-5.84,12.91.1.34.21.65.33.93-15.4.11-31.4,3.58-44.2,6.86,17.45-8.33,33.97-18.49,49.34-30.37.32-.24.55-.55.71-.89.34.04.68.06,1.01.06.13,0,.26,0,.39,0,4.06-.17,7.57-2.44,10.17-4.4,5.69-4.28,10.71-9.62,14.69-15.57,2.59,10.78,10.64,23.7,15.84,26.98,2.45,1.54,4.94,2.33,7.26,2.33.97,0,1.91-.14,2.8-.42,3.45-1.09,6.17-4.39,6.93-8.42,1.2-6.33-3.77-20.14-10.86-29.11,3.94,1.08,7.97,1.99,12.09,2.47,2.1.25,4.17.37,6.17.37,6.46,0,12.36-1.27,17.33-3.76.65-.32,2.61-1.31,2.99-3.45.2-1.12-.14-2.1-.41-2.74-2.02-4.8-6.9-8.21-14.51-10.14-5.92-1.5-11.8-2.23-17.61-2.19,4.69-2.68,9.14-5.78,13.21-9.27,2.67-2.29,5.61-5.13,7.16-8.87,1.2-2.89,1.44-5.96,1.56-8.6.09-1.92.33-7.02-3.27-9.68-1.25-.93-2.85-1.45-4.74-1.55-4.3-.24-9.26,1.32-12.36,3.87-2.54,2.09-4.92,4.69-7.48,8.17-2.04,2.77-4.76,6.8-7.47,10.86,1.95-12.15,1.11-25.98-3.8-32.8-.75-1.05-1.71-2.21-3.09-2.96-1.65-.88-3.6-.97-5.48-.26-2.27.86-4.2,2.81-5.04,5.08-1.22,3.29-1.39,7.39-1.42,10.19-.05,5.1.72,10.53,1.7,15.7-.52-.71-1.03-1.36-1.49-1.91-4.38-5.2-7.74-7.71-13.85-10.33-3.24-1.39-7.44-2.74-11.29-.86-1.1.54-1.89,1.27-2.34,2.18-.69,1.39-.42,2.79-.29,3.47.69,3.57,2.03,6.94,3.98,10.01,1.74,2.73,3.9,5.1,5.96,7.25.98,1.02,1.9,1.99,2.8,2.94.73.77,1.44,1.52,2.15,2.26-7.49-2.11-15.45-2.45-23.11-.89-1.68.34-6.78,1.37-8.69,5.59-1.37,3.02-.55,6.9,2.04,9.66,2.12,2.25,4.96,3.45,7.46,4.33,6.56,2.31,13.6,3.47,20.62,3.47.89,0,1.79-.04,2.68-.07-3.55,2.96-6.93,6.52-9.91,9.65-1.46,1.53-2.83,2.98-4.07,4.2t0,0c-2.66,2.61-5.31,5.82-4.81,9.84.28,2.26,1.53,4.06,3.21,5.33-8.58,6.54-17.52,12.55-26.78,17.99,5.86-10.58-.05-24.41-3.38-32.19l-10.47-24.44c.05-.8-.28-1.57-.89-2.08l-.63-1.47c-.39-.92-1.3-1.52-2.3-1.52h-.02c-1.01,0-1.91.62-2.29,1.56-5.81,14.27-8.61,29.95-8.11,45.35.13,3.95,1.48,8.8,3.61,12.96,1.78,3.49,4.86,7.98,9.39,9.61.17.06.34.11.52.17-9.78,4.95-19.86,9.32-30.22,13.06-.22.08-.42.2-.6.33-7.1.95-14.06,2.43-20.82,4.44,2.73-2.84,4.99-5.78,6.85-8.66.79.67,1.76,1.14,2.9,1.36.54.11,1.1.16,1.67.16,4.59,0,10.1-3.12,12.19-4.99.22-.2.89-.8,1.08-1.83.16-.88-.09-1.76-.67-2.43-1-1.14-2.51-1.16-2.96-1.14-3.18.15-6.85.47-10.05,1.43,1.63-3.4,2.79-6.48,3.69-8.88l.38-1c4.87-1.67,9.14-10.91,9.51-12.06,1.63-4.99.95-9.72-1.82-12.64-.48-.51-1.14-.76-1.84-.78-.7,0-1.36.31-1.83.82-1.27,1.41-12.33,13.92-10.06,20.91.33,1.02.75,1.77,1.22,2.35l-.24.64c-.31.81-.64,1.69-1,2.61-1.62-2.96-3.97-5.56-5.09-6.42-2.31-1.77-4.96-2-6.77-.59-1.15.9-1.78,2.3-1.88,4.17-.19,3.36,1.94,9.05,5.28,11.84,1.2,1,2.36,1.48,3.41,1.68-3.91,6.68-9.85,13.79-19.5,19.16-2.37,1.04-4.72,2.15-7.03,3.33,0,0,0,0,0,0,0,0,0,0,0,0-11.83,6.18-20.65,7.11-26.22,2.75-4.08-3.19-6.1-8.99-6.97-14.9.13-.8.26-1.62.37-2.46.7-5.17.79-9.47.79-11.57,0-4.75-.27-7.04-2.55-7.47-.25-.05-2.5-.39-3.2,2.48-.54,2.21-1.56,10.33-.46,18.82-.95,5.35-2.52,10.56-4.98,13.51-1.83,2.2-3.49,2.33-4.58,2.25-1.69-.14-3.11-1.24-4.35-3.38-2.53-4.35-3.5-11.54-3.68-17.85.6-.97,1.07-1.91,1.42-2.78,1.93-4.74,1.48-9.36.19-11.83-.79-1.51-2.23-1.85-3.31-1.52-1.64.5-2.63,2-3.12,8.53-.15,1.93-.21,3.99-.2,6.07-1.68,2.17-4.43,4.39-8.92,5.87-1.38.45-2.76.72-4.11.83-.67-1.7-1.5-3.32-2.44-4.76.55-2.53.67-4.93.36-7.06-.96-6.57-5.68-10.45-12.31-10.13-5.14.25-9.35,3.54-11.88,9.25-3.62,8.2-3.13,19.35.82,26.77-1.87.84-3.72,1.49-5.48,1.93-1.87.46-3.34.29-4.61-.56-4.33-2.89-5.88-12.92-7.12-20.98-1.39-9.03-2.6-16.82-8.19-16.22-3.22.35-5.55,5.34-7.22,11.46-1.71-5.35-4.01-10.18-6.93-11.25-.88-.32-2.62-.61-4.45,1.02-1.82,1.62-3.5,5.4-4.91,10.04-1.88-6.57-4.37-10.19-7.61-11.04-1.4-.37-2.77-.17-3.97.59-3.53,2.22-4.82,8.85-6.45,17.24-1.57,8.07-3.72,19.13-8.01,20.36-1.29.37-2.68-1.04-3.62-2.3-2.57-3.43-4.61-9.19-5.96-14.94,1.33-4.4,2.12-8.74,2.33-12.23.35-5.92-1.01-9.22-4.05-9.79-1.55-.29-3.01.39-3.91,1.84-.48.77-.8,1.86-1,3.19-1.9-2.34-4.25-3.83-6.76-4.03-2.27-.19-5.64.71-8.9,5.98-5.12,8.28-7.82,23.96-3.84,31.85,0,0-.02,0-.03,0-9.59,1.01-12.51-9.18-15.32-22.62-1.79-8.58-3.35-16-8.99-16-.06,0-.13,0-.19,0-3.35.1-5.1,4.02-5.67,5.3-.47,1.05-.92,2.33-1.36,3.78-2.05-6.13-4.79-9.15-8.27-9.02-2.6.1-4.52,2.6-6.4,8.34-2.16-5.73-4.85-8.45-8.1-8.28-3.02.15-4.22,3.47-6.2,8.98-4.7,13.05-13.45,37.35-48.35,29.02-6.76-1.61-13.8-3.42-20.6-5.17-44.43-11.42-90.38-23.22-127.94-2.32-1.21.67-1.64,2.19-.97,3.4.67,1.21,2.19,1.64,3.4.97,35.82-19.93,80.78-8.38,124.26,2.8,6.83,1.75,13.88,3.57,20.68,5.19,5.44,1.3,10.31,1.88,14.69,1.88,27.25,0,35.34-22.45,39.52-34.07.71-1.96,1.56-4.32,2.17-5.43.37.31.96.99,1.66,2.33,1.46,2.8,2.57,6.58,3.35,10.55-1.9,9.49-3.49,22.19-.27,24.68,1.06.82,2.46.86,3.66.11,4.19-2.65,3.39-15.22,1.63-24.7,1.53-7.47,3.27-11.93,4.28-13.17.26.16.64.52,1.11,1.23,1.94,2.95,3.31,8.49,4.15,14.22-1.52,9.57-1.97,19.73-.08,21.95.74.87,1.87,1.24,2.95.96,2.24-.59,3.09-3.1,3.15-9.25.04-4.05-.32-9-.98-13.69,1.61-9.91,3.73-14.7,4.81-15.56,1.57.43,3.13,7.92,3.99,12.01,2.37,11.34,5.58,26.68,18.78,26.68.63,0,1.29-.04,1.97-.11,1.38-.15,2.69-.36,3.94-.62,1.15.48,2.43.68,3.79.59,6.41-.43,11.48-6.57,14.95-14.01,1.41,4.16,3.12,7.84,4.95,10.27,3.4,4.48,6.75,4.67,8.95,4.03,7.24-2.08,9.42-13.33,11.54-24.21.96-4.96,2.58-13.26,4.24-13.95.54.14,1.47,1.04,2.47,3.14,1.83,3.87,3,9.48,3.66,14.9-1.34,7.61-1.89,14.85-1.24,17.6.46,1.94,1.55,2.62,2.39,2.84,1.01.27,2.08-.02,2.84-.78,2.13-2.13,2-11.03,1.03-19.28,1.5-8.04,3.78-16.36,5.71-18.3,1.25,1.3,3.62,6.36,5.74,16.27.1.45.19.9.28,1.34-2.81,18.54.74,20.12,1.92,20.64,1.06.47,2.24.35,3.14-.34.94-.71,2.89-2.2.85-15.6-.14-.9-.41-2.59-.81-4.7,1.25-7.65,3.24-15.45,4.97-17.56,1.13,1.65,2.06,7.66,2.69,11.75,1.46,9.5,3.12,20.27,9.29,24.38,2.45,1.63,5.34,2.05,8.58,1.25,2.64-.65,5.09-1.51,7.35-2.53,3.4,3.44,7.89,4.71,12.8,3.57,6.75-1.56,10.74-5.92,11.22-12.26.12-1.56.02-3.17-.26-4.77,1.45-.18,2.9-.49,4.29-.95,3.2-1.05,5.71-2.43,7.69-3.95.03.3.06.59.09.89,1.7,16,7.59,19.81,12.23,20.19,5.39.46,9.66-3.28,12.48-10.69,1.44,3.53,3.5,6.69,6.44,8.98,3.2,2.5,7.05,3.75,11.54,3.75,5.66,0,12.33-1.99,19.95-5.95,2.52-1.01,4.85-2.12,7.02-3.32,23.42-10.24,49.81-13.31,77.21-8.99-1.62.56-3.72,1.52-4.84,3.64-1.44,2.73-.36,5.75.16,7.21,1.26,3.51,3.24,7.76,7.4,9.44,1.27.51,2.58.71,3.86.71,2.04,0,4.01-.5,5.68-1.01,1.64-.5,3.24-1.09,4.82-1.74-1.55,2.68-2.64,5.69-2.23,8.98.25,2.03,1.06,3.82,1.77,5.39,1.38,3.07,3,6.18,6.33,7.54.71.29,1.68.45,2.79.45,1.96,0,4.35-.5,6.44-1.62,2.62-1.41,4.27-3.55,4.79-6.18.52-2.68.56-6.24.38-9.73,1.39,1.55,2.95,2.94,4.66,4.11,1.14.78,2.19,1.37,3.23,1.81,1.8.76,3.73,1.15,5.67,1.15,1.36,0,2.73-.19,4.06-.58,2.12-.62,3.77-1.65,4.89-3.07,1.99-2.52,2.23-6.25.6-9.53-1.28-2.57-3.42-4.47-5.53-6.14-5.1-4.01-9.55-6.79-14.89-9.3-.26-.12-.54-.19-.81-.21-.28-1.77-.98-3.28-2.11-4.45-.37-.38-.85-.64-1.37-.73-1.51-.27-2.91.11-3.92.39-1.11.3-2.45.67-3.7,1.42-.18-.12-.37-.22-.59-.29-4.52-1.48-9.94-1.65-16.4-.53-.2-.1-.41-.19-.63-.24-8.68-1.89-17.29-3.07-25.77-3.55,17.96-4.65,42.56-9.81,62.05-4.99,2.71.67,5.46,1.26,8.19,1.81-.37,5.34,6.56,13.75,6.65,13.83,1.44,1.46,3.06,2.95,5.13,3.94,1.42.68,2.91,1.02,4.34,1.02,1.1,0,2.16-.2,3.13-.61,0,0,.01,0,.02,0,0,0,0,0,0,0,0,0,0,0,0,0,1.27-.54,1.86-2,1.33-3.27-.11-.25-.25-.47-.42-.67-.21-.31-.73-1.16-1.24-1.98-2.7-4.36-4.77-7.54-6.4-9.86,11.49,1.97,19.03,2.04,26.47,1.09.12.76.44,1.57,1.02,2.43,1.8,2.62,6.31,5.6,9.86,5.6.71,0,1.38-.12,1.98-.38,0,0,0,0,0,0,.92-.4,1.51-1.33,1.5-2.34,0-.63-.93-3.01-2.43-5.37.55-.12,1.11-.25,1.65-.39,2.86-.79,5.45-2.08,7.95-3.33,2.46-1.23,5.25-2.62,7.42-4.94.62-.66.83-1.6.56-2.46ZM618.92,55.11c.76,0,1.56.06,2.33.13.39.22,1.24,1.17,1.89,2.81.69,1.75.66,3.07.5,3.37-1.07,1.59-3.55,1.96-5.33,1.5-1.73-.45-3.15-1.53-3.79-2.88-.61-1.29-.41-2.91.45-3.79.88-.89,2.35-1.14,3.95-1.14ZM643.63,99.17c-.42,2.21-1.83,4.05-3.52,4.58-2.15.68-4.62-.57-5.9-1.38-4.82-3.04-15.2-20.6-14.3-30.09.29-3.11,1.74-4.02,2.8-4.44.54-.21,1.1-.32,1.69-.32,1.65,0,3.49.83,5.49,2.49,8.26,6.85,14.79,23.65,13.75,29.15ZM671.13,65.56s-.06.03-.1.05c-5.63,2.82-12.78,3.82-20.67,2.89-7.28-.86-14.47-3.17-21.43-5.41-.18-.06-.36-.09-.54-.11.49-1.44.39-3.04.12-4.38,10.21-2.74,20.84-2.75,31.61-.02,5.85,1.49,9.56,3.83,11.02,6.97ZM641.85,28.6c2.31-3.14,4.42-5.45,6.63-7.27,2.13-1.75,5.87-2.89,8.91-2.74.89.05,1.59.25,2.04.58,1.3.96,1.33,3.56,1.25,5.42-.1,2.22-.29,4.76-1.18,6.91-1.15,2.76-3.47,4.99-5.8,6.99-7.89,6.77-17.27,12.03-27.16,15.26-.29-.45-.62-.9-1-1.33,2.24-3.09,5.15-7.44,7.98-11.67,3-4.49,6.11-9.14,8.33-12.15ZM619.41,36.8c-1.43-6.62-2.95-14.24-2.89-21.01.03-3.8.4-6.58,1.11-8.49.35-.93,1.2-1.8,2.13-2.15.53-.2.98-.2,1.35,0,.48.26.95.85,1.38,1.46,5.29,7.37,5.37,31.05-1.53,43.59-.07,0-.14,0-.21-.02,0-.15-.02-.3-.03-.45.48-4.5-.46-8.96-1.32-12.92ZM592.16,31.31c-1.59-2.5-2.73-5.36-3.29-8.27-.02-.09-.03-.16-.04-.23,2.02-.95,4.84.03,7.08.99,5.34,2.29,8.15,4.39,11.99,8.96,3.7,4.4,7.3,11.29,7.81,16.92,0,.03,0,.07-.01.1-.03.23-.02.45,0,.66-1.15.26-2.28.72-3.3,1.45-.38-.28-.78-.51-1.2-.72-4.13-3.32-7.29-6.65-10.87-10.43-.91-.96-1.84-1.95-2.83-2.97-1.89-1.96-3.84-4.1-5.35-6.47ZM578.21,60.41c-2.03-.71-4.1-1.58-5.48-3.04-1.01-1.07-1.72-2.85-1.12-4.16.57-1.25,2.29-2.18,5.13-2.75,9.57-1.94,19.65-.62,28.4,3.73.67.33,1.42.58,2.14.82.35.12.86.29,1.31.47.29.23.6.46.9.7-.52,1.93-.39,4.08.51,5.99,0,0,0,0,0,.01-.1.01-.2.01-.3.04-10.32,2.35-21.51,1.71-31.5-1.8ZM589.37,85.95c1.3-1.28,2.71-2.76,4.2-4.32,4.96-5.22,11.14-11.71,16.58-13.78,2.59-.98,3.99-.74,4.41-.25.62.74.64,3.24-1.27,6.5-3.88,6.59-9.17,12.51-15.28,17.11-2.15,1.62-4.71,3.29-7.38,3.4-2.02.09-4.38-1.18-4.61-3.01-.23-1.86,1.56-3.9,3.35-5.65ZM551.38,115.57c-2.04,2.32-3.74,3.11-5.02,3.3,1.21-9.17-.58-18.3-2.32-27.13-.22-1.12-.44-2.24-.65-3.35-1.34-7.02-2.37-14.29-1.62-21.14l7.74,18.06c4.85,11.32,8.43,22.82,1.87,30.26ZM534.4,100.59c-.27-8.36.5-16.8,2.21-25.04.26,4.62,1,9.26,1.87,13.78.21,1.12.44,2.25.66,3.38,1.58,8.03,3.21,16.32,2.41,24.31-3.87-3.46-6.98-10.96-7.16-16.43ZM263.96,152.87c-.19-.22-.38-.47-.55-.75-3.19-5.29-1.41-19.63,3.39-27.4,1.42-2.29,2.95-3.63,4.13-3.63.04,0,.08,0,.12,0,3.09.24,6.75,6.21,6.85,13.53.17,11.79-7.88,16.43-13.95,18.25ZM373.12,127.01c1.21-2.75,3.51-6.08,7.54-6.28.19,0,.37-.01.54-.01,4.71,0,6.18,3.16,6.58,5.87.07.48.12.96.15,1.44-.62-.45-1.24-.8-1.86-1.04-2.31-.92-4.57-.39-6.04,1.42-2.22,2.73-2.44,5.98-.57,8.7.98,1.42,2.44,2.61,4.22,3.51-2.6,3.49-6.14,6.5-9.9,8.8-3.2-6.02-3.62-15.71-.66-22.41ZM387.11,134.15c-.24.73-.52,1.46-.84,2.16-1.24-.59-2.18-1.3-2.69-2.04-.44-.65-.71-1.42.35-2.74.67.03,1.9,1,3.18,2.61ZM384.1,154.71c-2.66.62-5,.21-6.96-1.22,4.97-3.12,8.74-7.09,11.34-11.23.86.18,1.74.3,2.64.38.09.42.17.85.23,1.28.85,5.85-1.59,9.48-7.24,10.79ZM587.18,174.38c-.21,1.08-.88,1.94-2.04,2.62-1.99,1.17-4.54,1.27-5.17,1.07-1.62-.67-2.66-2.73-3.67-4.97-.59-1.32-1.21-2.68-1.36-3.96-.37-2.96,1.54-6.03,3.45-8.64.22-.3.45-.63.69-.96.95-1.33,2.32-3.24,3.67-4.45.14-.1.28-.19.42-.28.15-.1.28-.22.4-.35.43-.28.85-.46,1.25-.5.18-.01.67-.06,1.48.57.47,3.15,1.99,14.18.88,19.86ZM606.95,157.29c1.92,1.51,3.35,2.84,4.15,4.44.75,1.5.73,3.22-.04,4.19-.58.73-1.61,1.15-2.37,1.37-2.07.6-4.39.47-6.37-.37-.72-.31-1.49-.74-2.35-1.33-4.51-3.1-7.79-8-8.99-13.35,1.26-.71,2.28-1.86,2.89-3.24,4.61,2.23,8.58,4.75,13.09,8.3ZM585.52,144.94c.66-.5,1.71-.79,2.72-1.06.29-.08.6-.16.89-.22.39.91.37,2.03.31,2.72-.07.81-.74,1.62-1.34,1.65-.52.01-1.36-.46-2.37-1.42-.59-.56-.71-.78-.73-.86-.01-.1.13-.49.53-.79ZM580.11,144.65c-.16.78-.16,1.59.05,2.36.3,1.14.95,2.01,1.63,2.72-.72.36-1.4.82-2.05,1.35-4.26,2.9-8.9,5.14-13.83,6.66-2.05.63-4.38,1.17-6.2.44-2.33-.94-3.67-3.97-4.57-6.5-.4-1.12-.81-2.49-.45-3.18.38-.73,1.92-1.22,2.84-1.51,9.58-3.06,16.98-3.83,22.57-2.34ZM629.74,146.45c-.26-.17-.55-.29-.85-.35.31.06.6.19.85.35ZM630.14,146.76c-.11-.11-.23-.2-.36-.29.13.09.26.18.36.29ZM628.44,146.05c.14,0,.27.02.4.04-.13-.02-.26-.04-.4-.04ZM628.34,146.05c-.12,0-.24.02-.36.04.12-.02.24-.03.36-.04ZM627.89,146.1c-.15.03-.3.07-.45.13.15-.06.3-.1.45-.13Z"/>
</svg>